<svg xmlns="http://www.w3.org/2000/svg" viewBox="0 0 500 500"><g id="freepik--Plants--inject-18"><g id="freepik--plants--inject-18"><path d="M74.79,278.75s1.9-19.34-2.57-36.23S58.23,213,47,208.34s-23.9,3-13.93,14.21,29.45,25.67,30.78,56.08Z" style="fill:#6C2BD9"></path><path d="M74.79,278.75s1.9-19.34-2.57-36.23S58.23,213,47,208.34s-23.9,3-13.93,14.21,29.45,25.67,30.78,56.08Z" style="opacity:0.15"></path><path d="M71.08,272.33h.14a.65.65,0,0,0,.59-.69c-2.53-33.8-21.63-53.71-31.37-59.51a.65.65,0,1,0-.66,1.11c9.54,5.68,28.25,25.23,30.74,58.49A.66.66,0,0,0,71.08,272.33Z" style="fill:#fff"></path><path d="M21.49,249.68c0,2.41,1.75,4.44,3.44,6.16s3.53,3.6,3.81,6c.54,4.85-5.51,8.67-4.76,13.48a7.59,7.59,0,0,0,3.52,4.81c1.41.95,3,1.64,4.46,2.45a19.87,19.87,0,0,0,2.28.79c2.27.63,4.62,1.54,6.09,3.48,2.32,3.07,1.56,7.36,2.12,11.17.66,4.56,2.39,9.32,9.89,11.34l20.41-12.68c5.88-6.47,6.7-17.65-1.22-22.57-1.68-1-3.65-1.75-4.92-3.26C65.07,269,64.9,266.39,65,264s.48-4.86-.28-7.14c-1.05-3.17-4.1-5.34-7.32-6.24-3.76-1-7.75.13-11.26-1.55s-6.65-4.16-10.33-5.47-7.75-1.36-11,.75A6.67,6.67,0,0,0,21.49,249.68Z" style="fill:#6C2BD9"></path><path d="M58.28,272.2a.51.51,0,0,0-.15-.23c-8.37-14.78-23-22.84-28-24.51a.55.55,0,1,0-.34,1c4.78,1.57,18.36,9,26.66,22.65a30,30,0,0,0-24-.29.55.55,0,0,0-.23.73.51.51,0,0,0,.41.29.51.51,0,0,0,.32-.05,28.93,28.93,0,0,1,24.43.93,45.54,45.54,0,0,1,5.35,28.67.54.54,0,0,0,.42.6h0a.56.56,0,0,0,.61-.47A46.52,46.52,0,0,0,58.28,272.2Z" style="fill:#fff"></path></g></g><g id="freepik--Floor--inject-18"><ellipse id="freepik--floor--inject-18" cx="250" cy="364.88" rx="231.53" ry="125.18" style="fill:#f5f5f5"></ellipse></g><g id="freepik--Shadows--inject-18"><path id="freepik--Shadow--inject-18" d="M388,455.7c35.86-20.71,35.86-54.27,0-75s-94-20.71-129.86,0-35.85,54.26,0,75S352.15,476.4,388,455.7Z" style="fill:#e0e0e0"></path><ellipse id="freepik--shadow--inject-18" cx="182.19" cy="362.6" rx="123.37" ry="71.23" style="fill:#e0e0e0"></ellipse></g><g id="freepik--speech-bubbles--inject-18"><g id="freepik--speech-bubble--inject-18"><g id="freepik--speech-bubble--inject-18"><path d="M153.47,75.61l-3.62-6.81,2.91-8.41V55.25l-8.91,5.14v5.15l3.83,6.64a.63.63,0,0,0,.26.23h0Z" style="fill:#6C2BD9"></path><path d="M153.47,75.61l-3.62-6.81,2.91-8.41V55.25l-8.91,5.14v5.15l3.83,6.64a.63.63,0,0,0,.26.23h0Z" style="opacity:0.2"></path><path d="M149.45,68.78l3.82,6.62a.57.57,0,0,0,1-.09l4-11.67" style="fill:#6C2BD9"></path><path d="M185.3,22.12V45.9a4.2,4.2,0,0,1-1.91,3.29L122.24,84.5a1.15,1.15,0,0,1-.63.18,1,1,0,0,1-.24,0,.49.49,0,0,1-.17-.06l-.17-.08a1.61,1.61,0,0,1-.49-.64,2.31,2.31,0,0,1-.2-1V59.59a4.22,4.22,0,0,1,1.9-3.3L183.39,21a1.4,1.4,0,0,1,1.28-.17l.16.1h0a.74.74,0,0,1,.12.13s0,0,.06.06.05.07.06.1a.8.8,0,0,1,.11.25.69.69,0,0,1,.05.17s0,0,0,0a.57.57,0,0,1,0,.18A1.66,1.66,0,0,1,185.3,22.12Z" style="fill:#6C2BD9"></path><path d="M120.54,83.87a2.31,2.31,0,0,1-.2-1V65.81h0V59.59a3.77,3.77,0,0,1,.57-1.89L116,54.92a3.92,3.92,0,0,0-.58,1.9V63h0V80.1a2.34,2.34,0,0,0,.22,1,1.66,1.66,0,0,0,.58.65l4.55,2.61a1.54,1.54,0,0,1,.23.14A1.86,1.86,0,0,1,120.54,83.87Z" style="fill:#6C2BD9"></path><path d="M120.54,83.87a2.31,2.31,0,0,1-.2-1V65.81h0V59.59a3.77,3.77,0,0,1,.57-1.89L116,54.92a3.92,3.92,0,0,0-.58,1.9V63h0V80.1a2.34,2.34,0,0,0,.22,1,1.66,1.66,0,0,0,.58.65l4.55,2.61a1.54,1.54,0,0,1,.23.14A1.86,1.86,0,0,1,120.54,83.87Z" style="opacity:0.2"></path><path d="M183.39,21,122.24,56.3a3.8,3.8,0,0,0-1.34,1.41L116,54.92a3.77,3.77,0,0,1,1.32-1.39l61.16-35.28a1.32,1.32,0,0,1,1.38-.11c.34.21,4.37,2.5,4.77,2.71A1.38,1.38,0,0,0,183.39,21Z" style="fill:#6C2BD9"></path><path d="M183.39,21,122.24,56.3a3.8,3.8,0,0,0-1.34,1.41L116,54.92a3.77,3.77,0,0,1,1.32-1.39l61.16-35.28a1.32,1.32,0,0,1,1.38-.11c.34.21,4.37,2.5,4.77,2.71A1.38,1.38,0,0,0,183.39,21Z" style="fill:#fff;opacity:0.4"></path></g><path d="M130.21,71.91c0,.17-.17.35-.5.54l-.63.36a.92.92,0,0,1-.34.13c-.08,0-.14,0-.17-.16l-1.29-4.55,0,0v5.07a1,1,0,0,1-.56.86l-.38.22c-.37.21-.55.14-.55-.22V63.38a.94.94,0,0,1,.55-.85l.38-.22c.38-.22.56-.15.56.21v5h0l1.28-6a.87.87,0,0,1,.16-.35,1.57,1.57,0,0,1,.33-.25l.52-.3c.35-.2.52-.22.52,0A2.05,2.05,0,0,1,130,61L128.57,67l1.58,4.55A.87.87,0,0,1,130.21,71.91Z" style="fill:#455a64"></path><path d="M130.77,65.9c0-4,.82-6.53,2.48-7.48.81-.47,1.43-.34,1.85.4a9.51,9.51,0,0,1,.63,4.21A15.65,15.65,0,0,1,135.1,68a4.43,4.43,0,0,1-1.85,2.53C131.59,71.46,130.77,69.92,130.77,65.9Zm3,1.73a4.77,4.77,0,0,0,.32-1.35,21.81,21.81,0,0,0,.1-2.39,18.22,18.22,0,0,0-.1-2.24,1.89,1.89,0,0,0-.32-1c-.14-.15-.32-.15-.55,0a1.36,1.36,0,0,0-.55.66,4.63,4.63,0,0,0-.33,1.36,21.08,21.08,0,0,0-.11,2.36,17.91,17.91,0,0,0,.11,2.25,1.91,1.91,0,0,0,.33,1,.42.42,0,0,0,.55,0A1.41,1.41,0,0,0,133.81,67.63Z" style="fill:#455a64"></path><path d="M137.06,67.66V56.86a1,1,0,0,1,.55-.86l.25-.14a.45.45,0,0,1,.3-.08c.08,0,.14.11.19.27l1.71,4.51a10,10,0,0,1,.32,1.13l0,0c0-.56-.07-1-.07-1.29V55a.94.94,0,0,1,.55-.85l.22-.14c.37-.21.55-.13.55.23V65a1,1,0,0,1-.55.86l-.18.1a.53.53,0,0,1-.31.09c-.08,0-.15-.1-.2-.27l-1.81-4.69a7.32,7.32,0,0,1-.26-.93l-.05.08c.05.49.08.85.08,1.1V66.9a.94.94,0,0,1-.55.85l-.23.13C137.24,68.1,137.06,68,137.06,67.66Z" style="fill:#455a64"></path><path d="M143.13,56.72a.61.61,0,0,1-.1-.34l-.21-2.76v-.09a1,1,0,0,1,.57-.87l.1,0q.57-.33.57.21c0,.27,0,.7-.08,1.29s-.08,1.2-.13,1.8a1.25,1.25,0,0,1-.1.45.51.51,0,0,1-.22.24l-.18.1C143.25,56.76,143.18,56.77,143.13,56.72Z" style="fill:#455a64"></path><path d="M145.17,63V52.18a1,1,0,0,1,.55-.86l.25-.14a.38.38,0,0,1,.3-.08c.08,0,.14.1.19.27l1.71,4.51c.09.24.19.62.32,1.13l0,0c-.05-.56-.08-1-.08-1.29V50.28a1,1,0,0,1,.55-.86l.23-.13c.37-.21.55-.13.55.23v10.8a.94.94,0,0,1-.55.85l-.18.11a.55.55,0,0,1-.31.09c-.08,0-.15-.11-.2-.27l-1.81-4.69a6.26,6.26,0,0,1-.26-.93l-.05.08c.05.49.08.85.08,1.1v5.55a1,1,0,0,1-.55.86l-.23.13C145.35,63.42,145.17,63.34,145.17,63Z" style="fill:#455a64"></path><path d="M151.24,59.47V48.67a1,1,0,0,1,.55-.87l.4-.23c.36-.21.55-.13.55.24v10.8a1,1,0,0,1-.55.87l-.4.23C151.43,59.92,151.24,59.84,151.24,59.47Z" style="fill:#455a64"></path><path d="M154.67,56.68a10.18,10.18,0,0,1-.6-4.27,15.61,15.61,0,0,1,.63-4.89,4.56,4.56,0,0,1,2-2.61,2,2,0,0,1,.82-.29c.2,0,.3.17.3.55a5.46,5.46,0,0,1-.13,1.23c-.09.38-.19.57-.32.57a1.22,1.22,0,0,0-.61.18,2.18,2.18,0,0,0-.85,1.42,12.88,12.88,0,0,0-.28,3,9.05,9.05,0,0,0,.28,2.67c.19.51.49.65.9.41a1.44,1.44,0,0,0,.3-.21c.09-.08.19-.19.33-.33a.29.29,0,0,1,.08-.07c.13-.07.22,0,.29.26a4.72,4.72,0,0,1,.09,1.06,2.16,2.16,0,0,1,0,.46,1.1,1.1,0,0,1-.22.41,4.36,4.36,0,0,1-.43.42,4,4,0,0,1-.55.39C155.71,57.53,155.07,57.42,154.67,56.68Z" style="fill:#455a64"></path><path d="M159.09,55V44.14a1,1,0,0,1,.55-.86l.4-.23c.36-.2.54-.13.54.23v4.17l1.62-.94V42.35a1,1,0,0,1,.55-.86l.39-.23c.37-.21.55-.14.55.22V52.29a.94.94,0,0,1-.55.85l-.39.23c-.36.21-.55.14-.55-.22V48.74l-1.62.94v4.41a1,1,0,0,1-.54.85l-.4.23C159.27,55.38,159.09,55.31,159.09,55Z" style="fill:#455a64"></path><path d="M165.21,51.41V40.61a1,1,0,0,1,.55-.88l.4-.23c.36-.21.54-.12.54.25v10.8a1,1,0,0,1-.54.87l-.4.23C165.39,51.86,165.21,51.78,165.21,51.41Z" style="fill:#455a64"></path><path d="M169.1,49.62c-.07,0-.11-.08-.12-.2L167.74,39.3a.61.61,0,0,1,0-.14s0-.09,0-.11a.9.9,0,0,1,.56-.76l.27-.16c.38-.22.58-.16.61.17l.45,6,.08,1.17.09,1.26.17-2.14c0-.24,0-.41,0-.51l.58-6.74a.8.8,0,0,1,.12-.34,1.19,1.19,0,0,1,.33-.27l.47-.27a.65.65,0,0,1,.33-.12q.1,0,.12.21l.57,6.07.21,2.46.13-1.88.06-.81.46-6.49A1.06,1.06,0,0,1,174,35l.22-.13c.37-.22.56-.18.56.12a1.85,1.85,0,0,1,0,.25L173.5,46.81a.8.8,0,0,1-.45.61l-.62.36c-.26.15-.4.11-.43-.1l-.65-5.59-.1-1.74-.11,1.87-.66,6.33a.77.77,0,0,1-.43.6l-.62.37A.61.61,0,0,1,169.1,49.62Z" style="fill:#455a64"></path><path d="M175.13,45.85a2,2,0,0,1,0-.32L176.62,34a1.1,1.1,0,0,1,.58-.81l.62-.35c.35-.2.54-.16.59.13l1.46,9.89c0,.15,0,.25,0,.29a.7.7,0,0,1-.41.61L179,44c-.31.18-.47.16-.51-.06L178.23,42l-1.45.84-.25,2.2a.8.8,0,0,1-.45.61l-.49.29C175.28,46.13,175.13,46.1,175.13,45.85Zm2.94-5.79-.43-3.34c0-.38-.08-.78-.11-1.21l-.05,0q0,.7-.12,1.35L177,40.7Z" style="fill:#455a64"></path></g><g id="freepik--speech-bubble--inject-18"><g id="freepik--speech-bubble--inject-18"><path d="M312.46,173.57l3.62-6.81-2.91-8.4v-5.15l8.91,5.15v5.14l-3.83,6.64a.57.57,0,0,1-.26.23h0Z" style="fill:#6C2BD9"></path><path d="M312.46,173.57l3.62-6.81-2.91-8.4v-5.15l8.91,5.15v5.14l-3.83,6.64a.57.57,0,0,1-.26.23h0Z" style="opacity:0.2"></path><path d="M316.48,166.74l-3.82,6.63a.57.57,0,0,1-1-.1l-4.05-11.67" style="fill:#6C2BD9"></path><path d="M280.64,120.08v23.78a4.21,4.21,0,0,0,1.9,3.3l61.15,35.3a1.26,1.26,0,0,0,.63.19,1.18,1.18,0,0,0,.25,0l.16-.05.17-.09a1.72,1.72,0,0,0,.5-.64,2.27,2.27,0,0,0,.2-1V157.55a4.2,4.2,0,0,0-1.91-3.29L282.54,119a1.39,1.39,0,0,0-1.28-.16.51.51,0,0,0-.16.09h0a.74.74,0,0,0-.12.13.2.2,0,0,0-.06.07.33.33,0,0,0-.06.1.66.66,0,0,0-.11.24.47.47,0,0,0,0,.17s0,0,0,0a.47.47,0,0,0,0,.17A1.93,1.93,0,0,0,280.64,120.08Z" style="fill:#6C2BD9"></path><path d="M345.4,181.83a2.63,2.63,0,0,0,.2-1v-17.1h0v-6.22a3.8,3.8,0,0,0-.57-1.89l4.88-2.78a4,4,0,0,1,.58,1.9V161h0v17.1a2.33,2.33,0,0,1-.22,1,1.66,1.66,0,0,1-.58.65l-4.55,2.61-.23.14A1.7,1.7,0,0,0,345.4,181.83Z" style="fill:#6C2BD9"></path><path d="M345.4,181.83a2.63,2.63,0,0,0,.2-1v-17.1h0v-6.22a3.8,3.8,0,0,0-.57-1.89l4.88-2.78a4,4,0,0,1,.58,1.9V161h0v17.1a2.33,2.33,0,0,1-.22,1,1.66,1.66,0,0,1-.58.65l-4.55,2.61-.23.14A1.7,1.7,0,0,0,345.4,181.83Z" style="opacity:0.2"></path><path d="M282.54,119l61.15,35.28a3.88,3.88,0,0,1,1.34,1.41l4.87-2.79a3.77,3.77,0,0,0-1.32-1.39l-61.16-35.27a1.33,1.33,0,0,0-1.38-.12c-.34.21-4.37,2.5-4.77,2.72A1.34,1.34,0,0,1,282.54,119Z" style="fill:#6C2BD9"></path><path d="M282.54,119l61.15,35.28a3.88,3.88,0,0,1,1.34,1.41l4.87-2.79a3.77,3.77,0,0,0-1.32-1.39l-61.16-35.27a1.33,1.33,0,0,0-1.38-.12c-.34.21-4.37,2.5-4.77,2.72A1.34,1.34,0,0,1,282.54,119Z" style="fill:#fff;opacity:0.4"></path></g><path d="M289.75,137.8a2.46,2.46,0,0,0-.75,1.8c0,1.9,1.49,2.76,2.53,3.37a15.29,15.29,0,0,0,3.19,1.41l.11,2.12a19.72,19.72,0,0,1-3.11-1.48,13.4,13.4,0,0,1-2.15-1.47,6,6,0,0,1-1.91-4.37,4,4,0,0,1,1-2.79Zm4.54-1.54a4,4,0,0,0-3.39.55l-1.14-1.54a6.27,6.27,0,0,1,1.33-.64h0a22.91,22.91,0,0,1-2.87-1.51c0-.48,0-1.51,0-2l.71.43c1.05.6,2.56,1.41,3.29,1.77a10.93,10.93,0,0,0,2,.78Z" style="fill:#fafafa"></path><path d="M301.63,138c-.05.21-.19.27-.45.14-.42,1.25-1.24,4.1-1.61,5.45a1.54,1.54,0,0,1,1.89-.21,3.48,3.48,0,0,1,1.35,3.12c0,.29,0,1.68,0,2,0,.93.23,1.46.67,1.72.78.44,1.38-.63,1.83-2.95a20.32,20.32,0,0,0,1.21,1.81c-.63,2.72-1.59,4-3.09,3.18a4.37,4.37,0,0,1-2-3.9c0-.29,0-1.69,0-2,0-.73-.13-1.14-.41-1.31-1-.56-2,1.07-2.27,2.25-.14.56-.31,1.26-.47,1.95l-1.32-1.4c.63-2.53,1.94-7.62,2.29-8.91.21-.78.53-2.13.62-2.61Z" style="fill:#fafafa"></path><path d="M308.34,155.11a33.17,33.17,0,0,1-.47-6c0-2.17.22-5,.48-7.49l1.71,1.35c0,.17-.11.23-.32.12a51.84,51.84,0,0,0-.55,6.71,21.25,21.25,0,0,0,.08,2.29c.12-.39.52-1.52.66-2l.61,1.82a23.41,23.41,0,0,0-.86,2.27,3.53,3.53,0,0,0-.08.72,3.79,3.79,0,0,0,0,.58Zm5.1-3.69a2.29,2.29,0,0,0-.77,1.79c0,1.19.94,1.86,2.17,2.57a12.14,12.14,0,0,0,1.48.75l0,2c-.39-.19-.8-.41-1.19-.64a13.78,13.78,0,0,1-1.76-1.16,5.07,5.07,0,0,1-2-4,4.14,4.14,0,0,1,.89-2.67Zm2.6-2a33.28,33.28,0,0,1-4.45-2l0-1.95a29.87,29.87,0,0,0,4.39,1.93Z" style="fill:#fafafa"></path><path d="M322.24,149.24c0,.25-.16.26-.31.2,0,.67-.05,1.39-.09,2a14.12,14.12,0,0,0,3.75,1.24l.21,2.13a18.58,18.58,0,0,1-4.09-1.51,18.31,18.31,0,0,1-.38,2.84,2.9,2.9,0,0,1,2.58.18,5.53,5.53,0,0,1,2.48,5c0,3.29-2,3.33-5.52,1.4a20,20,0,0,0-.38-2c2.93,1.58,4.57,1.8,4.57-.08a2.82,2.82,0,0,0-1.38-2.6,2,2,0,0,0-2.83.64L319.59,157a11.52,11.52,0,0,0,.82-4.47l-2.22-1.28v-1.95c.47.31,1.58.95,2.33,1.38,0-.81.05-1.78,0-2.68Z" style="fill:#fafafa"></path><path d="M331,163.3a22,22,0,0,0-.86,2.53,2.48,2.48,0,0,0-.11.79,4.93,4.93,0,0,0,0,.72l-1.24-.61a39.22,39.22,0,0,1-.42-6.34,53.73,53.73,0,0,1,.52-6.93l1.63,1.42c0,.15-.15.2-.29.15a34.75,34.75,0,0,0-.63,7.39c0,.55,0,1,0,1.33.15-.54.48-1.65.64-2.17Zm.62-3,0-1.85a6.44,6.44,0,0,0,.66.4c.54.31,1.08.59,1.61.87,0-1.27-.07-2.37-.08-3.56l1.65,1c0,.15-.1.25-.26.2v2.93a7.3,7.3,0,0,0,1.8.5l.11,2a7.14,7.14,0,0,1-1.87-.63c0,1.45.08,2.95.13,4a18.88,18.88,0,0,1,1.92,3l-.67,1.49a14.75,14.75,0,0,0-1.21-2.21c-.14,1.95-1.09,1.73-2,1.22a4.36,4.36,0,0,1-2-3.73c0-1.68,1-2,2.06-1.41a5.15,5.15,0,0,1,.62.44c0-.87-.08-2.17-.12-3.36-.3-.14-.67-.34-.89-.47Zm2.56,6.46a3.34,3.34,0,0,0-.72-.61c-.51-.29-1-.32-1,.37a1.8,1.8,0,0,0,1,1.47c.51.29.77,0,.76-.78C334.2,167.12,334.2,166.93,334.19,166.78Z" style="fill:#fafafa"></path></g></g><g id="freepik--Character--inject-18"><g id="freepik--character--inject-18"><g id="freepik--wheel-chair--inject-18"><path d="M191.65,216.75l-2.73-1.59c-6.74-3.89-13.11-5.76-18.78-5.84h-.49a23.42,23.42,0,0,0-2.93.17,32.14,32.14,0,0,0-22,12.27c-.11.12-.21.24-.31.37a8.58,8.58,0,0,0-.53.7l-.33.47c-.15.2-.28.4-.41.6-.25.38-.5.77-.72,1.18l-.25.43c-.11.19-.21.39-.32.6l0,.06A32.09,32.09,0,0,0,138,241.53v1.28c0,.58,0,1.19,0,1.79v3.17c0,27.39,19.22,60.69,42.94,74.37l2.74,1.59c6.74,3.89,13.11,5.76,18.78,5.85h.39c.38,0,.74,0,1.11,0h.36c.32,0,.63,0,.95-.08l.48-.05.25,0a32.16,32.16,0,0,0,22.47-13q.35-.45.66-.93l.08-.11c.25-.36.49-.73.72-1.12a32,32,0,0,0,4.74-16.84v-6.24C234.59,263.73,215.38,230.43,191.65,216.75Zm-9.42,96.88C162.21,302.07,146,274,146,250.84s16.23-32.5,36.25-20.93,36.26,39.67,36.26,62.79S202.26,325.2,182.23,313.63Z" style="fill:#455a64"></path><path d="M183.6,221.4l-2.74-1.59c-11.73-6.77-22.36-7.48-30.11-3.14l-.6.35-.15.09c-.23.15-.46.29-.69.45s-.46.31-.68.48a12.38,12.38,0,0,0-1.29,1c-.21.18-.42.36-.62.55a16.84,16.84,0,0,0-1.19,1.2,8.39,8.39,0,0,0-.56.65c-.19.22-.37.43-.55.66a8.58,8.58,0,0,0-.53.7l-.33.47c-.15.2-.28.4-.41.6-.25.38-.5.77-.72,1.18l-.25.43c-.11.19-.21.39-.32.6l-.3.59c-.35.73-.69,1.48-1,2.26-.17.42-.33.84-.46,1.26,0,0,0,0,0,.05-.27.78-.51,1.58-.73,2.4-.12.45-.23.9-.33,1.36s-.23,1.05-.33,1.59c0,.25-.09.5-.13.76-.08.44-.14.88-.2,1.33s-.13,1-.18,1.51l0,.25c0,.43-.08.87-.11,1.31l0,.54c0,.49-.06,1-.07,1.49s0,1.19,0,1.79v3.17c0,27.39,19.22,60.69,42.94,74.37l2.74,1.59c6.89,4,13.4,5.86,19.17,5.86.38,0,.74,0,1.11,0h.36c.32,0,.63,0,.95-.08l.48-.05c.31,0,.63-.08.94-.13s.56-.09.83-.15a6.83,6.83,0,0,0,.81-.16c.51-.12,1-.26,1.5-.42l.63-.2.68-.25.58-.23c.41-.17.82-.35,1.22-.56l.59-.31.16-.09a1.34,1.34,0,0,0,.23-.13l.38-.2c7.62-4.56,12.32-14.11,12.32-27.65v-3.17C226.54,268.38,207.31,235.08,183.6,221.4Zm-1.37,92.23C162.21,302.07,146,274,146,250.84s16.23-32.5,36.25-20.93,36.26,39.67,36.26,62.79S202.26,325.2,182.23,313.63Z" style="fill:#37474f"></path><path d="M209.2,307.7c-5.73,6.83-15.67,7.8-27,1.28C164.43,298.71,150,273.72,150,253.16c0-9.18,2.89-15.93,7.67-19.66-3.33,3.93-5.27,9.81-5.27,17.34,0,20.55,14.43,45.54,32.23,55.82C194.47,312.35,203.29,312.34,209.2,307.7Z" style="fill:#6C2BD9"></path><path d="M209.2,307.7c-5.73,6.83-15.67,7.8-27,1.28C164.43,298.71,150,273.72,150,253.16c0-9.18,2.89-15.93,7.67-19.66-3.33,3.93-5.27,9.81-5.27,17.34,0,20.55,14.43,45.54,32.23,55.82C194.47,312.35,203.29,312.34,209.2,307.7Z" style="opacity:0.2"></path><path d="M182.23,229.91c-20-11.56-36.25-2.19-36.25,20.93s16.23,51.23,36.25,62.79,36.26,2.19,36.26-20.93S202.25,241.47,182.23,229.91Zm0,79.07C164.43,298.71,150,273.72,150,253.16s14.42-28.88,32.22-18.6,32.23,35.26,32.23,55.82S200,319.26,182.23,309Z" style="fill:#6C2BD9"></path><path d="M213.37,280.15c-.07-.36-.15-.73-.23-1.09l-28.08-7.52-.64-.94,20.64-11.91c-.16-.29-.34-.57-.51-.86l-20.62,11.91-.49-1,7.44-27.8-.83-.74-7.32,27.34-1-1.12-7.21-35.21c-.36-.11-.72-.2-1.07-.29l7.11,34.73-1.13-.16L160.1,232q-.45.22-.87.48L178.58,266l-.42,1.06-26.8-23.76c-.1.34-.21.69-.3,1.05l27.18,24.11.48,1.42-27.82-7.46.21,1.09,28.29,7.58.64.94-21,12.14c.16.29.32.58.49.87l21-12.15.49,1-7.66,28.56c.28.25.55.51.83.75l7.54-28.12,1,1.13,7.41,36.22c.36.11.71.19,1.07.28L183.9,277l1.12.17,19.77,34.24c.29-.16.57-.34.85-.51l-19.76-34.22.42-1.06,27,23.95q.15-.52.27-1.08l-27.37-24.27-.48-1.42Z" style="fill:#ebebeb"></path><path d="M184.1,256.76c-3.43-2-6.52-2.1-8.72-.72-.45.28-1,.53-1.59.88-.16.09-.32.2-.47.3l-.08.06,0,0a5.47,5.47,0,0,0-.59.49l-.13.12c-.17.17-.32.34-.48.53l-.16.22c-.13.17-.25.36-.37.55l-.18.33c-.1.18-.19.36-.28.55s-.12.31-.17.46-.14.36-.2.55-.1.39-.15.59-.09.35-.12.53-.08.52-.12.79,0,.29-.06.44c0,.43-.06.88-.06,1.34,0,7.71,5.42,17.08,12.09,20.94.42.24.83.45,1.24.64.24.11.48.19.72.29s.33.14.49.19.32.09.49.14.46.14.68.19l.27,0c.29,0,.58.1.87.13h.06a6.33,6.33,0,0,0,3.94-.93c.58-.34,1.1-.59,1.77-1,2.12-1.28,3.43-4,3.43-7.73C196.19,270,190.77,260.62,184.1,256.76ZM180.65,280c-2.08-1.62-5-6.51-6.12-9.24a21.83,21.83,0,0,0,2.11,1.29c3.14,1.63,3.06-.57,4.34.95s1,5.28,0,7.22A1.8,1.8,0,0,1,180.65,280Zm6.12-14.32a3,3,0,0,0-.51.23c-.34.19-1.7,1-1.86,1.05a2.33,2.33,0,0,0-.92.93c-1.56-1.59-3.36-6.65-3.22-9,2.71.93,7.21,4.69,7.9,6.14a1.71,1.71,0,0,1,.13.35A6.86,6.86,0,0,0,186.77,265.67Zm-9.17-1.6c1,3.65,2.55,4.21,2.64,5.4-2.37-.38-6.24-2.69-6.5-5a9.25,9.25,0,0,1,2.09-6.13C176.84,258.8,176.77,261.08,177.6,264.07Zm6.83,19.16c-1.25-1.15.14-2.27.79-4.65a6.36,6.36,0,0,0,0-3.46c2.48,1.94,6.19,7.08,5.23,8.6a1.58,1.58,0,0,1-.12.15C188.22,284.41,185.31,284.05,184.43,283.23Zm5.91-7.94c-2.63-3.51-3.67-2.3-4.31-4.18a2.42,2.42,0,0,1,.85-2.52,3.1,3.1,0,0,1,3.81,1.28c1.28,2.28,2,6.43,2.06,9C192.12,278,191.34,276.61,190.34,275.29Z" style="fill:#e0e0e0"></path><path d="M184.1,256.76c-3.43-2-6.52-2.1-8.72-.72-.45.28-1,.53-1.59.88-.16.09-.32.2-.47.3l-.08.06,0,0a5.47,5.47,0,0,0-.59.49l-.13.12c-.17.17-.32.34-.48.53l-.16.22c-.13.17-.25.36-.37.55l-.18.33c-.1.18-.19.36-.28.55s-.12.31-.17.46-.14.36-.2.55-.1.39-.15.59-.09.35-.12.53-.08.52-.12.79,0,.29-.06.44c0,.43-.06.88-.06,1.34,0,7.71,5.42,17.08,12.09,20.94.42.24.83.45,1.24.64.24.11.48.19.72.29s.33.14.49.19.32.09.49.14.46.14.68.19l.27,0c.29,0,.58.1.87.13h.06a6.33,6.33,0,0,0,3.94-.93c.58-.34,1.1-.59,1.77-1,2.12-1.28,3.43-4,3.43-7.73C196.19,270,190.77,260.62,184.1,256.76ZM180.65,280c-2.08-1.62-5-6.51-6.12-9.24a21.83,21.83,0,0,0,2.11,1.29c3.14,1.63,3.06-.57,4.34.95s1,5.28,0,7.22A1.8,1.8,0,0,1,180.65,280Zm6.12-14.32a3,3,0,0,0-.51.23c-.34.19-1.7,1-1.86,1.05a2.33,2.33,0,0,0-.92.93c-1.56-1.59-3.36-6.65-3.22-9,2.71.93,7.21,4.69,7.9,6.14a1.71,1.71,0,0,1,.13.35A6.86,6.86,0,0,0,186.77,265.67Zm-9.17-1.6c1,3.65,2.55,4.21,2.64,5.4-2.37-.38-6.24-2.69-6.5-5a9.25,9.25,0,0,1,2.09-6.13C176.84,258.8,176.77,261.08,177.6,264.07Zm6.83,19.16c-1.25-1.15.14-2.27.79-4.65a6.36,6.36,0,0,0,0-3.46c2.48,1.94,6.19,7.08,5.23,8.6a1.58,1.58,0,0,1-.12.15C188.22,284.41,185.31,284.05,184.43,283.23Zm5.91-7.94c-2.63-3.51-3.67-2.3-4.31-4.18a2.42,2.42,0,0,1,.85-2.52,3.1,3.1,0,0,1,3.81,1.28c1.28,2.28,2,6.43,2.06,9C192.12,278,191.34,276.61,190.34,275.29Z" style="opacity:0.2"></path><path d="M182.23,257.81c-6.67-3.85-12.09-.72-12.09,7s5.42,17.08,12.09,20.94,12.08.72,12.08-7S188.91,261.67,182.23,257.81Zm-3,.83c2.39,0,8.13,4.69,8.92,6.34s-1.31,1-3.23,1.74c-2.45.86-1.29,3.23-2.73,2.64C180.1,268.48,176.86,258.6,179.24,258.64Zm-3.6-.37c1.23.21,1.08,2.62,2,5.8,1.12,4,2.88,4.29,2.63,5.8-.37,2.21-8-1.09-8.34-4.34S174.41,258.05,175.64,258.27ZM178.79,281c-2.61-2-6.57-9.31-6.6-10.84s2,.57,4.45,1.85c3.14,1.63,3.06-.57,4.34.95C182.87,275.23,181.41,283.07,178.79,281Zm11.62,2.69c-1.25,2-6.57,1.71-7.83.56s.15-2.27.79-4.66c.82-3-1-4.65.06-5.22C185,273.58,191.66,281.73,190.41,283.72Zm-1.92-7.39c-2.63-3.5-3.67-2.3-4.3-4.18-.95-2.73,4.66-5.54,6.5-2.28s2.51,10.38,1.77,11.2S190.56,279.08,188.49,276.33Z" style="fill:#e0e0e0"></path><path d="M182.23,276c2,1.18,3.7.22,3.7-2.14a8.19,8.19,0,0,0-3.7-6.4c-2-1.18-3.7-.22-3.7,2.14A8.19,8.19,0,0,0,182.23,276Z" style="fill:#455a64"></path><path d="M286.22,356.26,272,326.2h0l-4.54-9.59a36.72,36.72,0,0,0-13.69-15.39v4.25a33.22,33.22,0,0,1,10.51,12.65l2.17,4.58-11-6.23v4L269,328.24l14,29.52a1.75,1.75,0,0,0,1.59,1,1.68,1.68,0,0,0,.75-.17A1.76,1.76,0,0,0,286.22,356.26Z" style="fill:#fafafa"></path><path d="M246.25,314c-5,9.43-3.36,21.42-3.19,25.52s-1.87,3.29-3,0-4.23-16.75,1-28.5Z" style="fill:#ebebeb"></path><path d="M255.79,343.33c0-7.58-5.31-16.79-11.87-20.57-3.44-2-6.53-2.07-8.7-.62h0L230.16,325l17,28.94,5-2.85v0C254.4,349.86,255.79,347.19,255.79,343.33Z" style="fill:#455a64"></path><path d="M238.55,325.83c6.56,3.79,11.87,13,11.87,20.57s-5.31,10.64-11.87,6.86-11.88-13-11.88-20.57S232,322.05,238.55,325.83Z" style="fill:#37474f"></path><path d="M238.55,334.72a9.22,9.22,0,0,1,4.18,7.24c0,2.66-1.87,3.75-4.18,2.41a9.22,9.22,0,0,1-4.18-7.24C234.37,334.46,236.24,333.38,238.55,334.72Z" style="fill:#263238"></path><path d="M242.73,313.65c-5,9.42-3.36,21.42-3.19,25.52s-1.87,3.29-3,0-4.23-16.75,1-28.5Z" style="fill:#fafafa"></path><path d="M255.33,318.32l-49.71-29.5v5.25L248,319.14h0l5.44,3.22,1,.55a2.42,2.42,0,0,0,3.63-2.32l-.45-4.77Z" style="fill:#37474f"></path><polygon points="221.51 405.72 197.67 391.96 273.93 347.92 297.78 361.69 221.51 405.72" style="fill:#6C2BD9"></polygon><polygon points="197.67 391.96 197.67 397.46 221.51 411.22 221.51 405.72 197.67 391.96" style="fill:#6C2BD9"></polygon><polygon points="197.67 391.96 197.67 397.46 221.51 411.22 221.51 405.72 197.67 391.96" style="opacity:0.30000000000000004"></polygon><polygon points="297.78 361.69 297.78 367.19 221.51 411.22 221.51 405.72 297.78 361.69" style="fill:#6C2BD9"></polygon><polygon points="297.78 361.69 297.78 367.19 221.51 411.22 221.51 405.72 297.78 361.69" style="opacity:0.15"></polygon><path d="M166.1,340.7a1.75,1.75,0,0,1,2.4-.64l1.51.87a36.73,36.73,0,0,1,14.88,16.13l4.54,9.59h0l14.25,30.06a1.76,1.76,0,0,1-.84,2.34,1.68,1.68,0,0,1-.75.17,1.76,1.76,0,0,1-1.59-1l-14-29.53-17.59-10a1.76,1.76,0,0,1,1.73-3.07l13.24,7.51-2.18-4.58A33.17,33.17,0,0,0,168.24,344l-1.5-.86A1.76,1.76,0,0,1,166.1,340.7Z" style="fill:#fafafa"></path><path d="M165.22,360.57c-5,9.42-3.37,21.42-3.19,25.52s-1.87,3.29-3,0-4.22-16.75,1-28.5Z" style="fill:#ebebeb"></path><path d="M174.76,389.85c0-7.57-5.32-16.78-11.87-20.57-3.45-2-6.53-2.06-8.7-.61h0l-5.07,2.85,17,29,5-2.85v0C173.37,396.39,174.76,393.72,174.76,389.85Z" style="fill:#455a64"></path><path d="M157.52,372.36c6.55,3.79,11.87,13,11.87,20.57s-5.32,10.64-11.87,6.85-11.88-13-11.88-20.57S151,368.57,157.52,372.36Z" style="fill:#37474f"></path><path d="M157.52,381.24a9.28,9.28,0,0,1,4.18,7.25c0,2.66-1.88,3.74-4.18,2.41a9.25,9.25,0,0,1-4.19-7.24C153.33,381,155.21,379.91,157.52,381.24Z" style="fill:#263238"></path><path d="M161.7,360.18c-5,9.42-3.37,21.42-3.19,25.52s-1.87,3.29-3,0-4.22-16.75,1-28.5Z" style="fill:#fafafa"></path><path d="M85.5,188.9,90.09,181l-19.41-11.2h0a2.26,2.26,0,0,0-2.32.2,7.18,7.18,0,0,0-3.24,5.61,2.31,2.31,0,0,0,.91,2.07h0l0,0h0Z" style="fill:#455a64"></path><path d="M84.55,186.8c0,2.07,1.46,2.91,3.24,1.87A7.15,7.15,0,0,0,91,183.06c0-2.06-1.45-2.9-3.24-1.87A7.2,7.2,0,0,0,84.55,186.8Z" style="fill:#37474f"></path><path d="M88,183a1.19,1.19,0,0,1,1-.16l.26.16,13.53,7.81-4.32,2.49-11.26-6.51-.49-.27a1.27,1.27,0,0,1-.24-.82A3.48,3.48,0,0,1,88,183Z" style="fill:#e0e0e0"></path><path d="M137.78,158.7l4.59-7.93L123,139.57h0a2.24,2.24,0,0,0-2.31.2,7.18,7.18,0,0,0-3.24,5.62,2.29,2.29,0,0,0,.9,2.06h0l0,0h0Z" style="fill:#455a64"></path><path d="M136.84,156.61c0,2.06,1.45,2.9,3.24,1.87a7.18,7.18,0,0,0,3.24-5.61c0-2.07-1.45-2.91-3.24-1.87A7.15,7.15,0,0,0,136.84,156.61Z" style="fill:#37474f"></path><path d="M140.25,152.82a1.17,1.17,0,0,1,1-.16l.26.16L155,160.63l-4.32,2.49-11.26-6.51-.49-.27a1.27,1.27,0,0,1-.25-.82A3.49,3.49,0,0,1,140.25,152.82Z" style="fill:#e0e0e0"></path><path d="M166.64,176,147.7,186.92l86,40.66a21.5,21.5,0,0,1,9.71,14.62l11.77,76.17a1.31,1.31,0,0,0,2,.93h0c.45-.26.7-.75.55-2.6l-6.73-80.94c-.38-4.57-3.3-10-8-13.71Z" style="fill:#37474f"></path><path d="M163.45,321.63,92,280.37a10,10,0,0,1-4.51-7.82v-4.2A10,10,0,0,1,92,260.53l71.41-41.23a10,10,0,0,1,9,0l71.41,41.23a10,10,0,0,1,4.51,7.82v4.26a10,10,0,0,1-4.51,7.82l-71.41,41.21A10,10,0,0,1,163.45,321.63Z" style="fill:#6C2BD9"></path><path d="M164.77,322.2a6.5,6.5,0,0,1-1.32-.57L92,280.37a10,10,0,0,1-4.51-7.82v-4.21a10.12,10.12,0,0,1,3.67-7.21c-1.61,1.43-1.32,3.36.84,4.61l71.08,41Z" style="opacity:0.30000000000000004"></path><path d="M248.4,268.34v4.27a9.92,9.92,0,0,1-4.51,7.81l-71.41,41.22a10.09,10.09,0,0,1-7.71.56l-1.65-15.43.33.2a10,10,0,0,0,9,0l71.41-41.23c2.17-1.25,2.46-3.18.85-4.61A10.08,10.08,0,0,1,248.4,268.34Z" style="opacity:0.15"></path><path d="M188.86,234l-71.42,41.23a9.43,9.43,0,0,1-5.29,1.05c-.26,0-.53-.05-.79-.09l-.16,0-.47-.09h-.07a6.06,6.06,0,0,1-.7-.19,6.85,6.85,0,0,1-1.54-.65l-3.68-2.12a12.72,12.72,0,0,1-5.43-7.73L88.45,204.72a7,7,0,0,1-.09-1.13c0-.15,0-.3,0-.44a8.2,8.2,0,0,1,.5-2.22,8,8,0,0,1,2.39-3.41l.3-.23c.16-.11.32-.22.48-.31l71.41-41.23a10,10,0,0,1,9,0l3.67,2.12a9.49,9.49,0,0,1,2.17,1.77,3.42,3.42,0,0,1,.36.4,12.52,12.52,0,0,1,1.32,1.77l.25.41.21.36c.1.18.18.36.27.54a5.05,5.05,0,0,1,.24.53,4.22,4.22,0,0,1,.18.45.9.9,0,0,1,.08.21c.05.13.09.27.13.4s.1.35.14.52.06.25.09.38l10.86,60.62A7.94,7.94,0,0,1,188.86,234Z" style="fill:#6C2BD9"></path><path d="M101.15,212.05,112,272.67c.51,2.83,2.94,4,5.43,2.52L188.86,234a8,8,0,0,0,3.59-7.74l-10.86-60.62c-.51-2.83-2.94-4-5.44-2.53l-71.41,41.23A8,8,0,0,0,101.15,212.05Z" style="fill:#6C2BD9"></path><path d="M101.15,212.05,112,272.67c.51,2.83,2.94,4,5.43,2.52L188.86,234a8,8,0,0,0,3.59-7.74l-10.86-60.62c-.51-2.83-2.94-4-5.44-2.53l-71.41,41.23A8,8,0,0,0,101.15,212.05Z" style="opacity:0.15"></path><path d="M115.6,275.92a10.69,10.69,0,0,1-3.45.32c-.26,0-.53-.05-.79-.09s-.42-.06-.63-.11h-.07a6.06,6.06,0,0,1-.7-.19,6.85,6.85,0,0,1-1.54-.65l-3.68-2.12a12.72,12.72,0,0,1-5.43-7.73L88.45,204.72a7,7,0,0,1-.09-1.13c0-.15,0-.3,0-.44a8.2,8.2,0,0,1,.5-2.22l12.74,7.24a7.18,7.18,0,0,0-.46,3.88L112,272.67c.38,2.11,1.83,3.28,3.58,3.14A.41.41,0,0,0,115.6,275.92Z" style="opacity:0.30000000000000004"></path></g><g id="freepik--Bottom--inject-18"><path d="M249.53,347.17c-1.47.13-.45,1.67-.65,5.11,0,1-1.15,6.34.27,10.32,4.12,6.27,9.28,5.81,14.17,11.24,3.92,4.35,9.54,9.85,19.53,9.61,12.25-.3,16.62-8.05,13.14-10.61-3.85-2.83-12.83-6-24.11-17.36C266.27,349.86,249.53,347.17,249.53,347.17Z" style="fill:#37474f"></path><path d="M258.5,317.75s5,24,8.41,29.84c3.52,6.05,10,11.76,15.61,17,1.23,1.14,3.9,3.29,5,4.14,2.32,1.89.72,3.28-1.33,3.85-4.83,1.32-9.7.34-15.4-3.06-6.57-3.92-9.31-7.23-15.14-12a23.41,23.41,0,0,1-4.87-5.09,8.39,8.39,0,0,1-1.19-4.19,16,16,0,0,0-.75-4.88c-.47-1.51-5-16.49-6.64-20.18Z" style="fill:#ffbda7"></path><path d="M214.44,366.87c-1.48.1-.49,1.66-.77,5.09-.08,1-1.3,6.31,0,10.32,4,6.36,9.15,6,13.91,11.57,3.81,4.44,9.31,10.06,19.31,10,12.24,0,16.79-7.66,13.37-10.3-3.78-2.92-12.69-6.34-23.71-17.91C231.11,369.94,214.44,366.87,214.44,366.87Z" style="fill:#37474f"></path><path d="M225.31,336.22s3.25,25.59,6.49,31.47c3.38,6.12,9.72,12,15.22,17.37,1.2,1.17,3.82,3.37,4.86,4.26,2.28,1.94.65,3.29-1.42,3.81-4.86,1.21-9.7.12-15.33-3.41-6.48-4.07-9.13-7.44-14.86-12.36a24,24,0,0,1-4.75-5.19,8.56,8.56,0,0,1-1.09-4.22,16,16,0,0,0-.64-4.9c-.43-1.52-8.17-21.75-8.17-21.75Z" style="fill:#ffbda7"></path><path d="M249.14,263.4c-4.32-10-22.54-18.79-32.62-24.2s-15.73-8.8-27.26-16.12l-24.52-16c-1.09,7.42-1.6,12.54-.36,18.62l-38.49,4c0-.19,1.54,22.82,8.57,32.77s16.29,14.1,24.82,18.3c12.42,6.12,29.62,13.17,33.26,14.58a52.07,52.07,0,0,0,1,12.65c1.69,8.32,4.53,14.32,8.64,25.23,6.1,16.22,8,21.2,8,21.2s9.67.23,17.53-4.31c0,0-7.23-64.48-8.51-69.58a15,15,0,0,0-3-5.07c5.28,1.77,8.82,2.92,8.82,2.92a45.17,45.17,0,0,0,3.56,18.88c3.63,8.72,6.35,13.37,11.06,24.28,3.95,9.16,7.59,16.87,7.59,16.87,4.89,1.65,12.89-.48,15.58-3.1C262.86,335.35,253.46,273.39,249.14,263.4Z" style="fill:#6C2BD9"></path><path d="M249.14,263.4c-4.32-10-22.54-18.79-32.62-24.2s-15.73-8.8-27.26-16.12l-24.52-16c-1.09,7.42-1.6,12.54-.36,18.62l-38.49,4c0-.19,1.54,22.82,8.57,32.77s16.29,14.1,24.82,18.3c12.42,6.12,29.62,13.17,33.26,14.58a52.07,52.07,0,0,0,1,12.65c1.69,8.32,4.53,14.32,8.64,25.23,6.1,16.22,8,21.2,8,21.2s9.67.23,17.53-4.31c0,0-7.23-64.48-8.51-69.58a15,15,0,0,0-3-5.07c5.28,1.77,8.82,2.92,8.82,2.92a45.17,45.17,0,0,0,3.56,18.88c3.63,8.72,6.35,13.37,11.06,24.28,3.95,9.16,7.59,16.87,7.59,16.87,4.89,1.65,12.89-.48,15.58-3.1C262.86,335.35,253.46,273.39,249.14,263.4Z" style="opacity:0.4"></path><path d="M225.05,278.41c-.28-.09-3.74-1.22-8.8-2.9-6-6.69-36-26.77-36-26.77,4.89-2.2,10.32-6,13.25-11.26-1,5.7-5.83,11.26-5.83,11.26S220.9,275.58,225.05,278.41Z" style="opacity:0.2"></path></g><path d="M164.9,152.38c10.15-1.6,16.1,3.93,27,14.54l17.1,16.59s11.78-22.69,12.18-26.23c.48-4.26-1.24-6.92-1.55-11.5s.17-7.63-.77-9.61,2.88-2.12,4.21.36,1.22,5.83,2.33,5.32,2.46-7.57,2-12.79,2.53-6.31,3.45-4.58a14.73,14.73,0,0,1,1.22,2.89,11.38,11.38,0,0,1,1.42-.14,2.19,2.19,0,0,1,1.9.65c.48.51.81,1.16,1.34,1.63a12.2,12.2,0,0,0,1.86,1.08c4.51,2.67,3.47,10.69,2.94,14.93-1.11,8.86-5.53,13-7,16.15-.54,1.17-1.3,5.15-3.42,13.4-2.42,9.41-4.49,19.09-9.66,28.31-4.33,7.72-10,6.35-15.66,2.77-8-5.11-30.91-23.57-30.91-23.57C166.57,170.27,164.9,152.38,164.9,152.38Z" style="fill:#ffbda7"></path><path d="M227.93,145.49s4,6.29.27,12.39c0,0,3-1.51,2.68-6.95A7.14,7.14,0,0,0,227.93,145.49Z" style="fill:#f0997a"></path><path d="M209.05,183.51s-3.22,4.64-3.22,13.66a19,19,0,0,1,1.49-15.33Z" style="fill:#f0997a"></path><path d="M189.26,223.08l-8.33-11-.2-15.66c8.64-5.6,8-15.72,4.45-21.94-3.93-6.95-12.28-15.63-20.28-22.09l-5.88.31-19.59,3-9.77,2.75c4.28,5.89,7.43,13,4.49,22.13a15.33,15.33,0,0,1-11.8,10.33,101.93,101.93,0,0,0,2.21,17.52c2.24,10.55-.41,20.82,1.94,34.21,12.67,4.52,33.66,4.53,47.78-3.11C188.16,232,189.26,223.08,189.26,223.08Z" style="fill:#f5f5f5"></path><path d="M167.36,198.36c-5.73,5.54-17,6.59-23.31-.59,0,0,1.56,7.22,11.34,7.47S167.36,198.36,167.36,198.36Z" style="opacity:0.1"></path><path d="M132,99.42a10.29,10.29,0,0,0-4.9-3.16,16.62,16.62,0,0,0-17.29,5.23c-3.64,4.44-4.67,10.51-4.53,16.26s1.28,11.44,1.41,17.18c.12,5.1-5.45,8.95-9.18,11.58-.68.48-1.45,1.21-1.18,2a1.89,1.89,0,0,0,1.24,1,16.23,16.23,0,0,0,17-4.07c0,1.42-.09,2.85-.14,4.27a7.83,7.83,0,0,0,5.75-3.61,16.31,16.31,0,0,0,2.29-6.59c1.21-7.72-.7-15.25-.44-22.92.29-8.63,3.62-14.89,9-13.59,2.2.53,3.32-.16,2-2.21A13.58,13.58,0,0,0,132,99.42Z" style="fill:#263238"></path><path d="M165.79,91.43a6.92,6.92,0,0,1-2.2-.3A40,40,0,0,0,155,89.28a31.22,31.22,0,0,0-14.64,1.87A27.42,27.42,0,0,0,124,109.25c-2.55,9.38.89,18.54,6,24.58,3,3.52,7.18,6.46,9.77,9.5l2.1-6c3.43,1.66,6.73,6,10.8,5.93,3.58-.08,7.15.39,10.51-1.07a14.3,14.3,0,0,0,8.06-8.94,16.78,16.78,0,0,1,1.26-3.9c.75-1.32,1.5-6.19,2.83-6.93,5.73-3.22,8-5.08,8.74-10.64a11,11,0,0,0-.52-5.52,4.39,4.39,0,0,0-4.4-2.18,18,18,0,0,0,2.23-5.82,6.15,6.15,0,0,0-1.94-5.66c-1.43-1.1-3.35-1.25-5.15-1.31h-.43c-1.82,0-3.64,0-5.46,0C167.54,91.32,166.66,91.42,165.79,91.43Z" style="fill:#263238"></path><path d="M169.31,101.85c3.33,1.8,8.14,7.53,7.89,24.72-.21,14.25-4.76,18.78-7.09,19.91s-5.88.93-10.35.35l-.32,6.1c10.85,7.92,13.55,17.51,3.51,16.54-12.74-1.24-23.51-12.67-23.52-13.81l.17-19.55a6.13,6.13,0,0,1-6.82-1.55c-3.06-3-4-8.22-1.28-11.22s7.2-2.25,9.43.81c0,0,5.9-.12,15.15-5.65S167.37,108.61,169.31,101.85Z" style="fill:#ffbda7"></path><path d="M139.41,129.08a2.78,2.78,0,1,1-3.45-1.89A2.78,2.78,0,0,1,139.41,129.08Z" style="fill:#fafafa"></path><path d="M134,130.3a19,19,0,0,0,3.51,8.34,1.34,1.34,0,0,0,1.2-.58,17.66,17.66,0,0,1-1.72-3.93,10.82,10.82,0,0,1,.06-4.27Z" style="fill:#fafafa"></path><path d="M140.93,124.15l-.11,6.88h0a4.9,4.9,0,0,0,5-4.81l.13-8.22Z" style="fill:#263238"></path><path d="M174.32,117.14l-4.21-1.63a2.16,2.16,0,0,1,2.84-1.34A2.38,2.38,0,0,1,174.32,117.14Z" style="fill:#263238"></path><path d="M157.66,134.84l8.82,1.78a4.32,4.32,0,0,1-5.14,3.59A4.74,4.74,0,0,1,157.66,134.84Z" style="fill:#b16668"></path><path d="M158.12,137.73a4.67,4.67,0,0,0,3.22,2.48,4.35,4.35,0,0,0,2.68-.32,3.78,3.78,0,0,0-4.09-2.88A3.87,3.87,0,0,0,158.12,137.73Z" style="fill:#f28f8f"></path><polygon points="164.25 119.72 164.86 131.79 171.53 129.96 164.25 119.72" style="fill:#f0997a"></polygon><path d="M159.76,146.83c-4.7-.44-14.43-2.85-16.08-6.6a9.87,9.87,0,0,0,3.56,4.74c3,2.35,12.35,5.23,12.35,5.23Z" style="fill:#f0997a"></path><path d="M158.87,124.09a1.87,1.87,0,1,1-1.81-1.94A1.87,1.87,0,0,1,158.87,124.09Z" style="fill:#263238"></path><path d="M173.62,123a1.88,1.88,0,1,1-1.81-1.93A1.87,1.87,0,0,1,173.62,123Z" style="fill:#263238"></path><g id="freepik--Wheel--inject-18"><path d="M90,213.07l1.28,7.18L156.45,272a21.53,21.53,0,0,1,8.06,15.05l7.73,80.12a1.34,1.34,0,0,1-.66,1.25,1.32,1.32,0,0,1-1.38-.05h0l-25-14.55V348.6L166,360.72l-9.12-68.55a21.55,21.55,0,0,0-9.72-14.62L91.51,242.38A18,18,0,0,1,90,213.07Z" style="fill:#37474f"></path><path d="M100.53,227.63c-1.52,2.74-3.21,11.26-1.7,12.8a21.78,21.78,0,0,0,5.7,3.92,109,109,0,0,0,10,4.3c6.77,2.6,14.3,4.7,20.7,6.54Z" style="fill:#263238"></path><path d="M106.45,266.2l-2.73-1.59c-6.74-3.89-13.11-5.77-18.78-5.85h-.5a23.65,23.65,0,0,0-2.93.17,32.16,32.16,0,0,0-22,12.27l-.3.37c-.19.23-.37.46-.53.69s-.23.32-.33.48-.28.4-.41.6c-.25.38-.5.77-.73,1.18-.07.13-.15.28-.24.43s-.21.39-.32.6l0,.06A32.09,32.09,0,0,0,52.75,291v1.28c0,.58,0,1.19,0,1.79v3.17c0,27.39,19.22,60.69,42.94,74.37l2.74,1.59c6.74,3.89,13.1,5.76,18.78,5.84v0h.4c.38,0,.74,0,1.11,0H119c.31,0,.63,0,.95-.08l.47-.05.26,0a32.16,32.16,0,0,0,22.47-13q.34-.45.66-.93l.08-.11c.24-.36.48-.74.72-1.12a32.14,32.14,0,0,0,4.74-16.84v-6.24C149.39,313.18,130.17,279.88,106.45,266.2ZM97,363.08c-20-11.56-36.26-39.67-36.26-62.79S77,267.79,97,279.36s36.26,39.67,36.26,62.79S117.05,374.65,97,363.08Z" style="fill:#455a64"></path><path d="M98.4,270.85l-2.74-1.59c-11.73-6.77-22.36-7.48-30.11-3.14-.2.11-.4.22-.6.35l-.15.09-.69.45-.68.47a15.58,15.58,0,0,0-1.3,1c-.2.17-.41.36-.61.55a15,15,0,0,0-1.19,1.2c-.2.21-.39.43-.57.65l-.54.66c-.19.23-.37.46-.53.69s-.23.32-.33.48-.28.4-.41.6c-.25.38-.5.77-.73,1.18-.07.13-.15.28-.24.43s-.21.39-.32.6l-.3.59c-.36.73-.69,1.48-1,2.26-.17.42-.33.84-.47,1.26,0,0,0,0,0,.05q-.39,1.17-.72,2.4c-.12.45-.23.89-.34,1.36s-.22,1-.32,1.59c0,.25-.09.5-.13.76-.08.44-.14.88-.2,1.33s-.13,1-.18,1.51l0,.25c0,.43-.08.87-.11,1.31l0,.54c0,.49-.06,1-.07,1.49s0,1.19,0,1.79v3.17c0,27.39,19.22,60.69,42.94,74.37l2.74,1.59c6.89,4,13.4,5.86,19.17,5.86.38,0,.74,0,1.11,0H119c.31,0,.63,0,.95-.08l.47-.05c.32,0,.64-.08,1-.13s.56-.09.83-.15l.8-.16c.52-.12,1-.26,1.51-.42l.63-.2.68-.25c.2-.08.39-.15.57-.24a10.32,10.32,0,0,0,1.22-.55c.2-.09.4-.2.6-.31l.16-.09a1.34,1.34,0,0,0,.23-.13c.13-.06.24-.14.37-.2,7.63-4.56,12.33-14.11,12.33-27.65v-3.17C141.34,317.83,122.11,284.53,98.4,270.85ZM97,363.08c-20-11.56-36.26-39.67-36.26-62.79S77,267.79,97,279.36s36.26,39.67,36.26,62.79S117.05,374.65,97,363.08Z" style="fill:#37474f"></path><path d="M124,357.15c-5.74,6.83-15.67,7.8-27,1.28-17.8-10.27-32.23-35.26-32.23-55.82,0-9.18,2.89-15.93,7.67-19.66-3.34,3.93-5.27,9.81-5.27,17.34,0,20.55,14.43,45.54,32.23,55.82C109.27,361.79,118.08,361.78,124,357.15Z" style="fill:#6C2BD9"></path><path d="M124,357.15c-5.74,6.83-15.67,7.8-27,1.28-17.8-10.27-32.23-35.26-32.23-55.82,0-9.18,2.89-15.93,7.67-19.66-3.34,3.93-5.27,9.81-5.27,17.34,0,20.55,14.43,45.54,32.23,55.82C109.27,361.79,118.08,361.78,124,357.15Z" style="opacity:0.2"></path><path d="M97,279.36c-20-11.56-36.26-2.19-36.26,20.93S77,351.52,97,363.08s36.25,2.19,36.25-20.93S117.05,290.92,97,279.36Zm0,79.07c-17.8-10.27-32.23-35.27-32.23-55.82S79.23,273.73,97,284s32.23,35.26,32.23,55.81S114.83,368.71,97,358.43Z" style="fill:#6C2BD9"></path><path d="M128.17,329.6l-.24-1.09L99.86,321l-.64-.94,20.64-11.91-.51-.86L98.73,319.19l-.5-1,7.45-27.8-.83-.74L97.53,317l-1-1.13-7.2-35.2c-.36-.11-.72-.2-1.07-.29l7.1,34.73-1.12-.17-19.35-33.5-.87.48,19.36,33.52L93,316.47l-26.8-23.76q-.16.51-.3,1.05L93,317.87l.48,1.42L65.7,311.83c.07.36.13.73.21,1.09L94.2,320.5l.64.94-21,12.14.48.87,21-12.16.5,1-7.66,28.56c.28.25.55.51.83.75l7.53-28.12,1,1.13,7.41,36.22c.36.11.71.19,1.07.28L98.7,326.4l1.12.17,19.77,34.24c.29-.16.57-.34.85-.52l-19.76-34.21.42-1.06,27,24c.09-.35.18-.72.27-1.08L101,323.62l-.48-1.42Z" style="fill:#ebebeb"></path><path d="M98.9,306.21c-3.44-2-6.52-2.1-8.72-.72-.46.28-1,.53-1.59.88a5.4,5.4,0,0,0-.47.3l-.08.06,0,0a4.65,4.65,0,0,0-.59.49l-.13.12a6,6,0,0,0-.48.53c0,.07-.11.14-.16.22a4.4,4.4,0,0,0-.37.55c-.06.1-.12.22-.18.33s-.19.36-.28.55-.12.3-.17.46-.14.36-.2.55-.1.39-.15.59-.09.35-.13.53-.07.52-.11.78l-.06.45c0,.43-.06.88-.06,1.34,0,7.71,5.42,17.08,12.09,20.94.42.24.83.45,1.24.64.24.11.48.19.72.29s.33.14.49.19.32.09.49.14.46.14.68.19l.27,0a8.66,8.66,0,0,0,.87.12h0a6.31,6.31,0,0,0,3.94-.93c.59-.34,1.11-.59,1.77-1,2.13-1.28,3.43-4,3.43-7.74C111,319.44,105.57,310.07,98.9,306.21Zm-3.46,23.23c-2.07-1.62-5-6.51-6.11-9.24a19.63,19.63,0,0,0,2.11,1.29c3.14,1.63,3.06-.57,4.34.95s1,5.28,0,7.22A2.48,2.48,0,0,1,95.44,329.44Zm6.13-14.32a2.39,2.39,0,0,0-.51.23c-.34.19-1.7,1-1.86,1a2.27,2.27,0,0,0-.92.93c-1.56-1.59-3.36-6.65-3.22-9,2.71.93,7.21,4.69,7.9,6.14a2.19,2.19,0,0,1,.13.35A6.86,6.86,0,0,0,101.57,315.12Zm-9.17-1.6c1,3.65,2.54,4.21,2.64,5.4-2.38-.38-6.24-2.69-6.5-5a9.24,9.24,0,0,1,2.09-6.14C91.64,308.25,91.57,310.53,92.4,313.52Zm6.83,19.16c-1.26-1.15.14-2.27.79-4.65a6.41,6.41,0,0,0,0-3.47c2.48,1.95,6.19,7.08,5.23,8.6a1.67,1.67,0,0,1-.12.16C103,333.86,100.11,333.5,99.23,332.68Zm5.9-7.94c-2.62-3.52-3.67-2.31-4.3-4.18a2.4,2.4,0,0,1,.85-2.52,3.1,3.1,0,0,1,3.81,1.28c1.28,2.28,2,6.43,2.06,9C106.92,327.39,106.13,326.06,105.13,324.74Z" style="fill:#e0e0e0"></path><path d="M98.9,306.21c-3.44-2-6.52-2.1-8.72-.72-.46.28-1,.53-1.59.88a5.4,5.4,0,0,0-.47.3l-.08.06,0,0a4.65,4.65,0,0,0-.59.49l-.13.12a6,6,0,0,0-.48.53c0,.07-.11.14-.16.22a4.4,4.4,0,0,0-.37.55c-.06.1-.12.22-.18.33s-.19.36-.28.55-.12.3-.17.46-.14.36-.2.55-.1.39-.15.59-.09.35-.13.53-.07.52-.11.78l-.06.45c0,.43-.06.88-.06,1.34,0,7.71,5.42,17.08,12.09,20.94.42.24.83.45,1.24.64.24.11.48.19.72.29s.33.14.49.19.32.09.49.14.46.14.68.19l.27,0a8.66,8.66,0,0,0,.87.12h0a6.31,6.31,0,0,0,3.94-.93c.59-.34,1.11-.59,1.77-1,2.13-1.28,3.43-4,3.43-7.74C111,319.44,105.57,310.07,98.9,306.21Zm-3.46,23.23c-2.07-1.62-5-6.51-6.11-9.24a19.63,19.63,0,0,0,2.11,1.29c3.14,1.63,3.06-.57,4.34.95s1,5.28,0,7.22A2.48,2.48,0,0,1,95.44,329.44Zm6.13-14.32a2.39,2.39,0,0,0-.51.23c-.34.19-1.7,1-1.86,1a2.27,2.27,0,0,0-.92.93c-1.56-1.59-3.36-6.65-3.22-9,2.71.93,7.21,4.69,7.9,6.14a2.19,2.19,0,0,1,.13.35A6.86,6.86,0,0,0,101.57,315.12Zm-9.17-1.6c1,3.65,2.54,4.21,2.64,5.4-2.38-.38-6.24-2.69-6.5-5a9.24,9.24,0,0,1,2.09-6.14C91.64,308.25,91.57,310.53,92.4,313.52Zm6.83,19.16c-1.26-1.15.14-2.27.79-4.65a6.41,6.41,0,0,0,0-3.47c2.48,1.95,6.19,7.08,5.23,8.6a1.67,1.67,0,0,1-.12.16C103,333.86,100.11,333.5,99.23,332.68Zm5.9-7.94c-2.62-3.52-3.67-2.31-4.3-4.18a2.4,2.4,0,0,1,.85-2.52,3.1,3.1,0,0,1,3.81,1.28c1.28,2.28,2,6.43,2.06,9C106.92,327.39,106.13,326.06,105.13,324.74Z" style="opacity:0.2"></path><path d="M97,307.26c-6.67-3.85-12.09-.72-12.09,7S90.36,331.32,97,335.18s12.08.72,12.08-7S103.71,311.12,97,307.26Zm-3,.82c2.39,0,8.13,4.7,8.92,6.35s-1.31,1.05-3.23,1.74c-2.45.86-1.29,3.23-2.73,2.63C94.9,317.93,91.66,308.05,94,308.08Zm-3.6-.36c1.23.21,1.08,2.62,2,5.8,1.12,4,2.88,4.29,2.63,5.8-.37,2.21-8-1.09-8.34-4.34S89.21,307.5,90.44,307.72Zm3.15,22.76c-2.61-2-6.57-9.32-6.6-10.84s2,.57,4.45,1.85c3.14,1.63,3.06-.57,4.34.95C97.67,324.68,96.21,332.52,93.59,330.48Zm11.62,2.68c-1.25,2-6.57,1.72-7.83.57s.15-2.27.79-4.66c.81-3-1-4.65.06-5.22C99.75,323,106.46,331.18,105.21,333.16Zm-1.92-7.38c-2.63-3.5-3.67-2.3-4.31-4.18-.94-2.74,4.67-5.54,6.51-2.28s2.51,10.38,1.77,11.2S105.36,328.53,103.29,325.78Z" style="fill:#e0e0e0"></path><path d="M97,325.49c2,1.18,3.7.22,3.7-2.14A8.19,8.19,0,0,0,97,317c-2-1.18-3.7-.22-3.7,2.14A8.19,8.19,0,0,0,97,325.49Z" style="fill:#455a64"></path></g><g id="freepik--Arm--inject-18"><path d="M144.12,247.73c3,1.52,7,.69,11.48,1.64s7.3,2.25,9.46,1.89,1.26,3.34-1.5,4-5.93-.42-5.74.79,6.61,4.43,11.75,5.41S175,265.57,173,266a14.37,14.37,0,0,1-3.11.39,10.69,10.69,0,0,1-.25,1.4,2.21,2.21,0,0,1-1.14,1.65c-.63.32-1.34.47-1.94.85a12,12,0,0,0-1.54,1.49c-3.8,3.61-11.24.42-15.17-1.24-8.22-3.49-10.2-8.22-14.62-10.95s-21.7-12.19-31.3-18.29c-7.77-4.94-7.11-7.44-4.21-18.91,2.53-10,10.44-38.22,13-47.28,2.89-10.39,6.73-14.6,17-16.68,5.3,4.19,9.94,19.25,1.46,35.22L120.9,228s2.41,2.43,11.08,10.13C138.39,243.85,141.13,246.21,144.12,247.73Z" style="fill:#ffbda7"></path><path d="M120.9,228s-5.21-3.3-14.13-.31c0,0,4.77-5.1,14.75-1.76Z" style="fill:#f0997a"></path></g></g></g><g id="freepik--Table--inject-18"><g id="freepik--table--inject-18"><path d="M299.47,398.5c13-7.51,34.11-7.51,47.12,0,6.51,3.76,9.75,8.68,9.75,13.6,0,.51,0,3.65,0,4.23-.1,4.85-3.35,9.68-9.75,13.37-13,7.52-34.11,7.52-47.12,0-6.43-3.71-9.68-8.57-9.75-13.44,0-.56,0-3.7,0-4.23C289.75,407.13,293,402.24,299.47,398.5Z" style="fill:#37474f"></path><path d="M346.59,425.71c13-7.52,13-19.7,0-27.21s-34.11-7.51-47.12,0-13,19.69,0,27.21S333.58,433.22,346.59,425.71Z" style="fill:#455a64"></path><path d="M318.9,408.89h0V303.08h8.28V408.89h0a1.94,1.94,0,0,1-1.18,1.9,6.46,6.46,0,0,1-5.87,0A2,2,0,0,1,318.9,408.89Z" style="fill:#37474f"></path><path d="M254.72,227.74c37.78-21.81,99-21.81,136.81,0,18.89,10.91,28.32,25.2,28.31,39.49V270c0,14.29-9.42,28.59-28.31,39.49-37.78,21.82-99,21.82-136.81,0C235.82,298.6,226.4,284.3,226.4,270v-2.78C226.4,252.94,235.83,238.65,254.72,227.74Z" style="fill:#455a64"></path><path d="M254.63,220.49c37.78-21.81,99-21.81,136.81,0,18.89,10.91,28.32,25.2,28.32,39.49,0,2.94,0,1.83,0,4.77,0,14.29-9.43,28.59-28.32,39.49-37.78,21.81-99,21.81-136.81,0-18.89-10.9-28.32-27.19-28.31-41.48V260C226.31,245.69,235.74,231.4,254.63,220.49Z" style="fill:#6C2BD9"></path><path d="M254.63,220.49c37.78-21.81,99-21.81,136.81,0,18.89,10.91,28.32,25.2,28.32,39.49,0,2.94,0,1.83,0,4.77,0,14.29-9.43,28.59-28.32,39.49-37.78,21.81-99,21.81-136.81,0-18.89-10.9-28.32-27.19-28.31-41.48V260C226.31,245.69,235.74,231.4,254.63,220.49Z" style="fill:#fff;opacity:0.4"></path><path d="M254.63,220.49c37.78-21.81,99-21.81,136.81,0,18.89,10.91,28.32,25.2,28.32,39.49,0,2.94,0,1.83,0,4.77,0,14.29-9.43,28.59-28.32,39.49-37.78,21.81-99,21.81-136.81,0-18.89-10.9-28.32-27.19-28.31-41.48V260C226.31,245.69,235.74,231.4,254.63,220.49Z" style="opacity:0.1"></path><path d="M391.44,299.48c37.78-21.81,37.78-57.18,0-79s-99-21.81-136.81,0-37.78,57.18,0,79S353.66,321.29,391.44,299.48Z" style="fill:#6C2BD9"></path><path d="M391.53,299.48c37.78-21.81,37.78-57.18,0-79s-99-21.81-136.81,0-37.78,57.18,0,79S353.75,321.29,391.53,299.48Z" style="fill:#fff;opacity:0.85"></path></g><g id="freepik--Laptop--inject-18"><path id="freepik--shadow--inject-18" d="M348.69,243.15l-40.52-23.4a2.36,2.36,0,0,0-2.33,0l-70.3,40.6a.52.52,0,0,0,0,.89l40.91,23.62Z" style="opacity:0.1"></path><path d="M345.67,238.22v.91a3.75,3.75,0,0,1-1.87,3.24l-65.49,37.81a3.78,3.78,0,0,1-3.74,0l-35.7-20.54a3.77,3.77,0,0,1-1.86-3.24v-1.26h0a.47.47,0,0,0,.23.41l39.2,22.64Z" style="fill:#37474f"></path><path d="M276.45,278.18v2.49a3.72,3.72,0,0,0,1.86-.49l65.49-37.81a3.75,3.75,0,0,0,1.87-3.24v-.91Z" style="fill:#263238"></path><path d="M345.67,238.22,306.85,215.8a2.24,2.24,0,0,0-2.24,0l-67.35,38.9a.5.5,0,0,0,0,.86l39.19,22.63Z" style="fill:#455a64"></path><polygon points="276.09 274.89 255.15 262.81 316.38 227.46 337.43 239.47 276.09 274.89" style="fill:#37474f"></polygon><polygon points="337.43 239.47 336.63 239.93 316.38 228.38 255.95 263.27 255.15 262.81 316.38 227.46 337.43 239.47" style="fill:#263238"></polygon><polygon points="265.8 241.29 266.18 241.51 276.45 247.44 294.7 236.9 295.08 236.68 284.43 230.53 265.8 241.29" style="fill:#263238"></polygon><polygon points="266.18 241.51 276.45 247.44 294.7 236.9 284.43 230.97 266.18 241.51" style="fill:#37474f"></polygon><path d="M277.5,278.74a4.46,4.46,0,0,0,3.82-.3l65.2-37.64a4.44,4.44,0,0,0,2.15-3.1l7.14-42.56a4.49,4.49,0,0,0,.06-.73,4.42,4.42,0,0,0-1.31-3.15l-67.75,39.12a3.26,3.26,0,0,0-1.59,2.29Z" style="fill:#37474f"></path><path d="M276.45,278.19l.44.25c.2.11.4.21.61.3l7.72-46.07a3.26,3.26,0,0,1,1.59-2.29l67.75-39.12a4.39,4.39,0,0,0-.9-.69l-67.89,39.19a3.3,3.3,0,0,0-1.6,2.3Z" style="fill:#455a64"></path><path d="M285.85,231.25l-1.05-.61a3.16,3.16,0,0,0-.63,1.42l-7.72,46.13.44.25c.2.11.4.21.61.3l7.72-46.07A3.2,3.2,0,0,1,285.85,231.25Z" style="fill:#263238"></path><path d="M314.22,239.44c.48-2.85,3.42-6.63,6.57-8.45s5.32-1,4.84,1.87-3.42,6.63-6.57,8.45S313.74,242.29,314.22,239.44Z" style="fill:#6C2BD9"></path></g><g id="freepik--Books--inject-18"><path id="freepik--shadow--inject-18" d="M357,297.89l53.64-31a1.06,1.06,0,0,0,0-2L369.2,241a3.81,3.81,0,0,0-3.48,0l-53.64,31a1.06,1.06,0,0,0,0,2l41.4,23.9A3.88,3.88,0,0,0,357,297.89Z" style="opacity:0.1"></path><g id="freepik--Book--inject-18"><path d="M352.13,292.58l1.28-.74a2,2,0,0,0-1.07-.07C352,291.93,352.13,292.58,352.13,292.58Z"></path><path d="M351.26,291.77a1.55,1.55,0,0,1,2.27,0c1.24,1.14,1.3,2.27,1.81,2.25s.51-5.21.51-5.21l-4.89.67Z"></path><path d="M402.44,262.67l.08-.05-.78-.45L368,242.71l-49.12,27.91c-.81.47-1,1.15-.32,1.51l1.15.66L351.25,291l.22-.16Z" style="fill:#455a64"></path><path d="M355.46,284.52,353,284v5.9c1.47.62,2.4,1.21,2.56,2.45Z" style="fill:#6C2BD9"></path><path d="M351.94,290l-31.22-18a2.19,2.19,0,0,1-1-1.7v-5.76l31.52,18.35a2.88,2.88,0,0,0,1.49,1.8c1.12.43.27.86.27.86v4.34C352.05,289.8,351.94,290,351.94,290Z" style="fill:#ebebeb"></path><path d="M354.81,284.18c-.32-.19-.57-.2-.57,0v.3c0,.34-.52.33-1.16,0s-1.15-.94-1.15-1.28v-.31c0-.17-.44-.56-1-.87l50.79-29.1.78.45a.71.71,0,0,1,.2.43v.3c0,.34.51.91,1.15,1.28s1.15.39,1.15.05v-.31c0-.18.26-.16.58,0Z" style="fill:#37474f"></path><path d="M402.44,253.36l.08-.05-.78-.45L368,233.4l-49.12,28.36c-.81.47-1,1.15-.32,1.51l1.15.67,31.52,19Z" style="fill:#455a64"></path><path d="M405,254.76l-50.74,29.3,1.77,1.39,50.58-29.2a1.94,1.94,0,0,0-.67-.95Z" style="fill:#455a64"></path><path d="M406.45,265.49l.09-.06,0-.05a.76.76,0,0,0,.11-.14l.05-.07a2.55,2.55,0,0,0,.13-.29,2.58,2.58,0,0,0,.1-.33,3.7,3.7,0,0,0,.07-.38.85.85,0,0,0,0-.23c0-.06,0-.12,0-.19s0-.29,0-.44V258.8a6.78,6.78,0,0,0-.47-2.55l-50.58,29.2-.21,9.26,50.58-29.21Z" style="fill:#37474f"></path><path d="M360.74,288.69c0,1.09-.26,1.74-.83,2.07-.39.22-.58.08-.68-.21l.29-.5c.06.17.17.27.39.14.4-.23.46-.68.46-1.28v-3.82l-.53.3v-.52l.9-.52Z" style="fill:#ebebeb"></path><path d="M363.81,288.43l-1,.56v-.53l.29-.17-.16-1.23-.9.52L361.9,289l.3-.17v.52l-.94.55v-.53l.29-.17.59-4.65c0-.24.05-.46.05-.5h0l-.17.1-.13.07v-.52l.93-.54.7,4.92.29-.17Zm-1.07-3c-.17-1.23-.2-1.6-.21-1.62h0s0,.43-.22,1.89l-.16,1.31.76-.44Z" style="fill:#ebebeb"></path><path d="M365.19,281.78c.65-.37,1,0,1,1.21a2.48,2.48,0,0,1-1,2.34l-.25.14v1.78l.29-.16v.52l-.94.55v-.53l.28-.16v-4.79l-.28.16v-.53Zm0,3c.45-.26.67-.77.67-1.61s-.24-1.13-.67-.88l-.23.13V285Z" style="fill:#ebebeb"></path><path d="M368.94,285.46l-1,.56v-.52l.29-.17-.16-1.23-.9.52L367,286l.3-.17v.52l-.94.55v-.53l.29-.17.59-4.65c0-.24.05-.46.05-.5h0l-.17.1-.13.07v-.53l.93-.53.7,4.91.29-.16Zm-1.07-3c-.17-1.23-.2-1.6-.21-1.62h0s0,.43-.22,1.88l-.16,1.32.76-.44Z" style="fill:#ebebeb"></path><path d="M371.53,284l-.46.26L370,280h0s0,.73,0,1.52v2.83l.28-.17v.53l-.86.5v-.53l.28-.16v-4.79l-.28.16v-.53l.73-.42,1.09,4.26h0s0-.78,0-1.55v-2.81L371,279v-.52l.86-.5v.52l-.28.17Z" style="fill:#ebebeb"></path><path d="M372.36,283.49V283l.28-.16V278l-.28.16v-.53l1.87-1.08V278l-.35.2v-.9l-.86.5v2l.84-.48v.52l-.84.49v2.25l.89-.51v-1l.35-.2v1.55Z" style="fill:#ebebeb"></path><path d="M375.23,280.51c0,.48.19.75.54.55a1.3,1.3,0,0,0,.51-1.2,1,1,0,0,0-.61-1.07c-.36-.21-.75-.35-.75-1.41a1.87,1.87,0,0,1,.73-1.71c.35-.21.54-.11.62.15h0v-.44l.31-.18v1.64l-.35.2v-.3c0-.58-.19-.79-.51-.61a1.15,1.15,0,0,0-.45,1.06.88.88,0,0,0,.55.94c.46.26.81.49.81,1.53a2.06,2.06,0,0,1-.79,1.89c-.37.21-.56.08-.64-.15h0v.45l-.32.18v-1.71l.34-.2Z" style="fill:#ebebeb"></path><path d="M377.21,280.69v-.53l.29-.16v-4.8l-.29.17v-.53l1.88-1.08v1.43l-.36.2v-.9l-.86.5v2l.84-.49V277l-.84.49v2.25l.89-.51v-1l.35-.2v1.55Z" style="fill:#ebebeb"></path><path d="M381.88,272.14c.9-.51,1.14.42,1.14,2.32s-.23,3-1.09,3.5l-1.05.61v-.52l.29-.17v-4.8l-.29.17v-.53Zm0,5.33c.62-.37.75-1.21.75-2.73,0-1.81-.17-2.4-.78-2.05l-.31.18v4.79Z" style="fill:#ebebeb"></path><path d="M384.51,276v.52l-.93.54v-.53l.28-.16v-4.79l-.28.16v-.53l.93-.54v.53l-.27.16v4.8Z" style="fill:#ebebeb"></path><path d="M387,273.49c-.08,1-.29,1.8-.93,2.17s-1-.26-1-2.46.31-3.17.92-3.51c.32-.19.53-.12.63.2h0v-.49l.32-.18v1.85l-.35.2v-.18c0-.77-.22-1.08-.56-.88s-.6,1.1-.6,2.72c0,1.91.16,2.45.61,2.19s.5-.7.57-1.56Z" style="fill:#ebebeb"></path><path d="M389.38,269.28v-.94l-.54.31v4.8l.32-.18v.52l-1,.58v-.52l.31-.18v-4.8l-.54.32v.93l-.35.2v-1.46l2.16-1.25v1.46Z" style="fill:#ebebeb"></path><path d="M391.22,272.07v.53l-.93.54v-.53l.28-.16v-4.8l-.28.17v-.53l.93-.54v.53l-.27.16v4.79Z" style="fill:#ebebeb"></path><path d="M392.8,265.76c.72-.42,1,.19,1,2.42s-.3,3.17-1,3.59-1-.18-1-2.42S392.08,266.17,392.8,265.76Zm0,5.46c.47-.28.63-1,.63-2.81s-.16-2.38-.63-2.1-.63,1-.63,2.81S392.32,271.49,392.8,271.22Z" style="fill:#ebebeb"></path><path d="M396.5,269.55l-.46.26L395,265.56h0v4.35l.28-.16v.52l-.86.5v-.53l.28-.16V265.3l-.28.16v-.53l.73-.42,1.09,4.26h0V264.4l-.29.16V264l.87-.5v.52l-.29.17Z" style="fill:#ebebeb"></path><path d="M399.69,267.71l-1,.56v-.53l.29-.16-.16-1.23-.9.52-.17,1.42.3-.18v.53l-.94.54v-.52l.29-.17.59-4.65c0-.24.05-.46.05-.5h0l-.17.09-.13.08V263l.93-.53.7,4.91.29-.16Zm-1.07-3c-.17-1.24-.21-1.6-.21-1.62h0s0,.44-.22,1.89l-.16,1.31.76-.44Z" style="fill:#ebebeb"></path><path d="M401.74,266.53l-.6-2.18-.15.08-.2.12v2l.28-.17v.53l-.92.54v-.53l.28-.16V262l-.28.17v-.53l1-.56c.65-.38,1,.14,1,1.1a2.64,2.64,0,0,1-.6,1.89l.54,1.8.28-.16v.53Zm-.6-2.67c.32-.18.57-.61.57-1.48s-.24-1-.66-.78l-.26.15v2.32Z" style="fill:#ebebeb"></path><path d="M403.89,264.76l.27-.16v.53l-.93.54v-.53l.28-.16v-2l-.77-2.38-.27.15v-.52l.95-.55v.53l-.28.16.31,1c.16.53.26.86.27.86h0s.1-.45.26-1.17l.31-1.4-.27.15v-.52l.89-.52v.53l-.27.16-.76,3.26Z" style="fill:#ebebeb"></path><path d="M356.53,288H355.4a5.21,5.21,0,0,0-.55-2.48,1.47,1.47,0,0,1-.93.31,3,3,0,0,1-1.41-.44,4.3,4.3,0,0,1-1.3-1.15.3.3,0,0,1-.07-.1,1.81,1.81,0,0,1-.34-1l-29.9-17.26-1-.59-1.3-.75a.68.68,0,0,1-.39-.58v-1.32a.68.68,0,0,0,.39.59l0,0,3.43,2L351,282c.54.31,1,.7,1,.87v.31a.94.94,0,0,0,.27.54,3.14,3.14,0,0,0,.88.74c.64.37,1.15.38,1.15,0v-.3c0-.18.26-.17.58,0l.57.34C356,284.88,356.53,286.45,356.53,288Z" style="fill:#263238"></path><path d="M355.4,288v4.51c0,.12,0,.23,0,.35l0,.28a0,0,0,0,1,0,0,3.25,3.25,0,0,0-1.7-2.13,2.85,2.85,0,0,0-1.39-.43,1.53,1.53,0,0,0-1,.37l-.1-.05-.2-.12L322,274.12l-1.66-.95c-.15-.09-.32-.18-.47-.28l-1.4-.81a.65.65,0,0,1-.31-.54v1.32a.63.63,0,0,0,.28.51h0l.51.3.32.19.56.32.34.2.25.14.42.25,23,13.25,7.33,4.24c.52.3.94.41,1,.25a.13.13,0,0,0,0,0v-.3c0-.37.51-.37,1.15,0a1.53,1.53,0,0,1,.9,1.16v.36a.54.54,0,0,0,.17.43l.17.09.37.21.44.26a.45.45,0,0,0,.57-.05.1.1,0,0,0,.06-.05.64.64,0,0,0,.1-.13h0a.12.12,0,0,0,.05-.07.9.9,0,0,0,.13-.28,2.55,2.55,0,0,0,.11-.33c0-.12.05-.25.07-.38a2,2,0,0,0,0-.24,1.24,1.24,0,0,1,0-.18c0-.14,0-.29,0-.44V288Z" style="fill:#263238"></path></g><g id="freepik--book--inject-18"><path d="M318.21,260.09l1-.57-.73-.33s-.58.15-.59.17a2.35,2.35,0,0,0,0,.4Z" style="fill:#6C2BD9"></path><path d="M318.21,260.09l1-.57-.73-.33s-.58.15-.59.17a2.35,2.35,0,0,0,0,.4Z" style="opacity:0.5"></path><path d="M356.52,279.4a3.3,3.3,0,0,1-2.94,0l-33-19.07L370,231.79l1.15-.67,33,19.06a.9.9,0,0,1,0,1.7Z" style="fill:#6C2BD9"></path><path d="M344.12,243.38,332.6,250l-7.45-4.31-8.67,5V257c0,.76.85,1.84,1.16,1.66a8.64,8.64,0,0,1,1.65.59,12.6,12.6,0,0,1,2.4,1.77l26.46-15.28Z" style="fill:#6C2BD9"></path><path d="M344.12,243.38,332.6,250l-7.45-4.31-8.67,5V257c0,.76.85,1.84,1.16,1.66a8.64,8.64,0,0,1,1.65.59,12.6,12.6,0,0,1,2.4,1.77l26.46-15.28Z" style="opacity:0.15"></path><path d="M316.48,257c0,.71.74,1.7,1.09,1.68h.07a13.32,13.32,0,0,1,1.16-.66l1-3.3s-.07-3.85,0-3.85-.39-1-.67-1.63l-2.65,1.53Z" style="opacity:0.4"></path><path d="M353.58,279.39l-2-1.15L321.69,261a1.92,1.92,0,0,0-.41-1.07,4.32,4.32,0,0,0-1.31-1.15,3,3,0,0,0-1.41-.44,1.52,1.52,0,0,0-.93.3,5.15,5.15,0,0,1-.55-2.47H316c0,1.56.52,3.13,1.15,3.49l.57.34c.33.18.58.19.58,0v-.31c0-.34.52-.32,1.16.05s1.14.94,1.14,1.28v.3c0,.18.45.57,1,.88l28.91,16.7,3.14,1.8h0a3.16,3.16,0,0,0,1.47.34v-1.31A2.91,2.91,0,0,1,353.58,279.39Z" style="fill:#6C2BD9"></path><path d="M353.58,279.39l-2-1.15L321.69,261a1.92,1.92,0,0,0-.41-1.07,4.32,4.32,0,0,0-1.31-1.15,3,3,0,0,0-1.41-.44,1.52,1.52,0,0,0-.93.3,5.15,5.15,0,0,1-.55-2.47H316c0,1.56.52,3.13,1.15,3.49l.57.34c.33.18.58.19.58,0v-.31c0-.34.52-.32,1.16.05s1.14.94,1.14,1.28v.3c0,.18.45.57,1,.88l28.91,16.7,3.14,1.8h0a3.16,3.16,0,0,0,1.47.34v-1.31A2.91,2.91,0,0,1,353.58,279.39Z" style="opacity:0.30000000000000004"></path><path d="M404.77,251v1.33a1,1,0,0,1-.59.83h0L359.64,278.9l-3.12,1.8h0a3.11,3.11,0,0,1-1.46.34v-1.31a3,3,0,0,0,1.47-.35l2-1.15h0l45.65-26.36A1,1,0,0,0,404.77,251Z" style="fill:#6C2BD9"></path><path d="M404.77,251v1.33a1,1,0,0,1-.59.83h0L359.64,278.9l-3.12,1.8h0a3.11,3.11,0,0,1-1.46.34v-1.31a3,3,0,0,0,1.47-.35l2-1.15h0l45.65-26.36A1,1,0,0,0,404.77,251Z" style="opacity:0.2"></path><path d="M355.05,270.93v7.63a1.92,1.92,0,0,1-1-.23l-3.63-2.09-27.59-15.93v-8Z" style="fill:#ebebeb"></path><path d="M403.34,244v5.87a2.19,2.19,0,0,1-1,1.7l-42.72,24.66L356,278.33a2,2,0,0,1-1,.23v-6.82Z" style="fill:#f5f5f5"></path><path d="M321.24,251.41v6.75l-.11-.07a3,3,0,0,0-1.41-.44,1.42,1.42,0,0,0-.92.31v-8Z" style="fill:#37474f"></path><path d="M322.85,260.31a2,2,0,0,0-.41-1.07,4.45,4.45,0,0,0-.41-.47l-.14-.13-.18-.15-.15-.11a2.64,2.64,0,0,0-.32-.22v-6.75l1.61.93Z" style="fill:#e0e0e0"></path><path d="M370,222.47,320.55,251v.66c0,.37-.51.5-1.14.13s-1.16-.82-1.16-1.46l-.06-.63,50.36-29.07.21-.12a.68.68,0,0,1,.08.31v.3C368.84,221.51,369.35,222.1,370,222.47Z" style="fill:#6C2BD9"></path><path d="M370,222.47,320.55,251v.66c0,.37-.51.5-1.14.13s-1.16-.82-1.16-1.46l-.06-.63,50.36-29.07.21-.12a.68.68,0,0,1,.08.31v.3C368.84,221.51,369.35,222.1,370,222.47Z" style="opacity:0.1"></path><path d="M353.58,270.08l-32.29-18.64c-.41-.22-.79-.39-1-.31l.21-.11L370,222.47l.57-.33a1.85,1.85,0,0,1,1.56.23l32,18.5a.9.9,0,0,1,0,1.7l-47.64,27.51A3.24,3.24,0,0,1,353.58,270.08Z" style="fill:#6C2BD9"></path><path d="M368.76,220.53l-.21.12-50.36,29.07a.56.56,0,0,0-.11-.13l-.17-.1-.36-.21-.45-.26a.46.46,0,0,0-.57,0l-.06.05a1.91,1.91,0,0,0-.15.21,1.51,1.51,0,0,0-.13.29,2.58,2.58,0,0,0-.1.33c0,.12,0,.24-.08.38a1.64,1.64,0,0,0,0,.23c0,.06,0,.12,0,.19s0,.29,0,.44v-1.41a3,3,0,0,1,1.47-2.27L365.07,220a3,3,0,0,1,2.62-.19l.6.35h0l.25.15a0,0,0,0,1,0,0A.59.59,0,0,1,368.76,220.53Z" style="fill:#6C2BD9"></path><path d="M353.59,270.09h0l-2-1.15-23-13.26-7.34-4.23c-.52-.31-.94-.41-1-.25h0v.34c0,.36-.52.36-1.15,0a1.53,1.53,0,0,1-.91-1.16V250a.51.51,0,0,0-.17-.43l-.17-.1-.36-.21-.45-.26a.46.46,0,0,0-.57,0l-.06.05a.71.71,0,0,0-.1.14l-.05.07a1.51,1.51,0,0,0-.13.29,2.58,2.58,0,0,0-.1.33c0,.12,0,.24-.08.38a1.64,1.64,0,0,0,0,.23c0,.06,0,.12,0,.19s0,.29,0,.44v5h1.13v-5c0-.12,0-.24,0-.35l0-.28a0,0,0,0,1,0,0,3.25,3.25,0,0,0,1.71,2.13,2.92,2.92,0,0,0,1.38.43,1.47,1.47,0,0,0,1-.38l.11.06.19.12,28.91,16.69,3.14,1.81h0l0,0a3.13,3.13,0,0,0,1.45.33v-1.31A3.09,3.09,0,0,1,353.59,270.09Z" style="fill:#6C2BD9"></path><path d="M353.59,270.09h0l-2-1.15-23-13.26-7.34-4.23c-.52-.31-.94-.41-1-.25h0v.34c0,.36-.52.36-1.15,0a1.53,1.53,0,0,1-.91-1.16V250a.51.51,0,0,0-.17-.43l-.17-.1-.36-.21-.45-.26a.46.46,0,0,0-.57,0l-.06.05a.71.71,0,0,0-.1.14l-.05.07a1.51,1.51,0,0,0-.13.29,2.58,2.58,0,0,0-.1.33c0,.12,0,.24-.08.38a1.64,1.64,0,0,0,0,.23c0,.06,0,.12,0,.19s0,.29,0,.44v5h1.13v-5c0-.12,0-.24,0-.35l0-.28a0,0,0,0,1,0,0,3.25,3.25,0,0,0,1.71,2.13,2.92,2.92,0,0,0,1.38.43,1.47,1.47,0,0,0,1-.38l.11.06.19.12,28.91,16.69,3.14,1.81h0l0,0a3.13,3.13,0,0,0,1.45.33v-1.31A3.09,3.09,0,0,1,353.59,270.09Z" style="opacity:0.30000000000000004"></path><path d="M404.77,241.7V243a1,1,0,0,1-.59.84h0l-44.52,25.7-3.12,1.81h0a3.11,3.11,0,0,1-1.46.34v-1.31a3,3,0,0,0,1.47-.35l2-1.15h0l45.65-26.36A1,1,0,0,0,404.77,241.7Z" style="fill:#6C2BD9"></path><path d="M404.77,241.7V243a1,1,0,0,1-.59.84h0l-44.52,25.7-3.12,1.81h0a3.11,3.11,0,0,1-1.46.34v-1.31a3,3,0,0,0,1.47-.35l2-1.15h0l45.65-26.36A1,1,0,0,0,404.77,241.7Z" style="opacity:0.2"></path><path d="M366.46,229.57l4.38,2.53,2.33-1.35,1.23.71c.35.21.38.35.22.44a1.75,1.75,0,0,1-.62.12l-1.65,1,4.44,2.56-6.83,4-1.51-.87.67-.39-2.94-1.69-4.53,2.62-1.52-.88,4.54-2.62L361.78,234l-.74.42-1.49-.86Zm.09,1.68-3.36,1.94,2.88,1.66,3.36-1.94Zm7.35,4.24-2.95-1.7-3.36,1.94,3,1.7Z" style="fill:#fafafa"></path><path d="M390.21,243.25l-1.45.84-1.65-1s0,0,0,.05a1.18,1.18,0,0,1-.58,0,36.43,36.43,0,0,1-7.5,1.56,6.62,6.62,0,0,0,2.55,3.64c-1,.18-2,.37-2.81.54a7.24,7.24,0,0,1-2.09-4.08,27.69,27.69,0,0,1-7.09-1.14,8.11,8.11,0,0,0,.64-1.54,21.6,21.6,0,0,0,6.53,1.32c.23-1.24,1.2-2.74,3-4.62l-1.83-1,1.45-.84,4.65,2.69,2.29-1.32,1.18.68c.38.21.4.35.27.42a1.15,1.15,0,0,1-.53.09l-1.71,1Zm-8.84-3.43a8.26,8.26,0,0,0-2.33,3.62,29.29,29.29,0,0,0,6.29-1.33Z" style="fill:#fafafa"></path><path d="M345.52,243.69a3.55,3.55,0,0,1,1.56-1.35,6.51,6.51,0,0,1,2.32-.87,3,3,0,0,1,1.9.38,2.21,2.21,0,0,1,.46.35c.08.1,0,.19-.12.29a2.35,2.35,0,0,1-.57.23c-.2.05-.32,0-.37,0a1,1,0,0,0-.32-.26,1.29,1.29,0,0,0-.95-.1,5.08,5.08,0,0,0-1.37.58,3.12,3.12,0,0,0-1,.8c-.14.22-.08.41.19.57l.21.1.27.08.06,0c.09,0,.09.12,0,.21a1.35,1.35,0,0,1-.41.31.64.64,0,0,1-.48.07,2.08,2.08,0,0,1-.35-.12,2.33,2.33,0,0,1-.39-.19C345.59,244.44,345.37,244.08,345.52,243.69Z" style="fill:#455a64"></path><path d="M348.05,245.55l4.56-2.63a.57.57,0,0,1,.59.07l.26.15c.23.14.27.25.12.34l-1.76,1,1.06.61,1.76-1a.55.55,0,0,1,.58.07l.26.15c.23.13.28.25.13.34L351,247.28a.58.58,0,0,1-.58-.07l-.25-.15c-.24-.14-.29-.25-.14-.34l1.87-1.07-1.06-.61L349,246.11a.55.55,0,0,1-.58-.07l-.26-.15C347.94,245.75,347.9,245.64,348.05,245.55Z" style="fill:#455a64"></path><path d="M352,247.85l4.56-2.63a.59.59,0,0,1,.6.07l.26.15c.23.13.27.25.11.34L353,248.41a.57.57,0,0,1-.59-.07l-.26-.15C351.92,248.05,351.88,247.94,352,247.85Z" style="fill:#455a64"></path><path d="M354,249l4.56-2.63a.59.59,0,0,1,.59.07l.16.1a.45.45,0,0,1,.16.13.17.17,0,0,1,0,.17l-1.22,2a4.15,4.15,0,0,1-.34.44h0q.31-.24.51-.36l2.28-1.31a.56.56,0,0,1,.58.08l.15.08c.24.14.28.25.13.34L357,250.69a.57.57,0,0,1-.59-.07l-.11-.07a.42.42,0,0,1-.17-.14s0-.1,0-.17l1.25-2.08a2.53,2.53,0,0,1,.29-.36h-.06a5,5,0,0,1-.43.31l-2.35,1.35a.58.58,0,0,1-.58-.07l-.15-.09C353.85,249.16,353.81,249.05,354,249Z" style="fill:#455a64"></path><path d="M357.85,251.38s.06-.1.16-.16l4.42-2.55a.54.54,0,0,1,.27-.09.34.34,0,0,1,.24.06l1.83,1.05a.09.09,0,0,1,.05.13.85.85,0,0,1-.23.18l-.22.12a1.35,1.35,0,0,1-.32.14.4.4,0,0,1-.22,0l-1.09-.63-1,.6,1,.55c.07,0,.08.08.05.13a.54.54,0,0,1-.22.18l-.22.13a1.26,1.26,0,0,1-.32.13.28.28,0,0,1-.22,0l-1-.56-1.16.67,1.1.63c.06,0,.07.08,0,.13a.6.6,0,0,1-.23.18l-.22.13a1.22,1.22,0,0,1-.31.13.28.28,0,0,1-.22,0l-1.83-1C357.88,251.47,357.84,251.42,357.85,251.38Z" style="fill:#455a64"></path><path d="M361.22,253.35a.47.47,0,0,1-.15-.41.35.35,0,0,1,.17-.19,1.54,1.54,0,0,1,.5-.18.63.63,0,0,1,.41,0,.33.33,0,0,1,.09.14c0,.07,0,.12.05.15a.7.7,0,0,0,.29.32.91.91,0,0,0,.44.13.86.86,0,0,0,.5-.12.68.68,0,0,0,.26-.24.38.38,0,0,0,0-.23c0-.07-.05-.17-.1-.3a1,1,0,0,1,0-.77,1.57,1.57,0,0,1,.71-.65,2.76,2.76,0,0,1,1.36-.38,2.5,2.5,0,0,1,1.3.34,1.35,1.35,0,0,1,.37.3.6.6,0,0,1,.18.31c0,.08,0,.15-.13.21a2.69,2.69,0,0,1-.47.19.54.54,0,0,1-.38,0,.52.52,0,0,1-.12-.13,1,1,0,0,0-.3-.3.81.81,0,0,0-.46-.12,1.06,1.06,0,0,0-.37.1c-.17.11-.27.21-.28.31a.79.79,0,0,0,.08.39l.05.14a1,1,0,0,1,0,.71,1.65,1.65,0,0,1-.68.6,2.83,2.83,0,0,1-.88.34,3.05,3.05,0,0,1-1,.06,2.47,2.47,0,0,1-.95-.31A2.07,2.07,0,0,1,361.22,253.35Z" style="fill:#455a64"></path><path d="M364,254.92s.07-.1.17-.16l4.42-2.55a.54.54,0,0,1,.27-.09.36.36,0,0,1,.24.06l1.82,1c.06,0,.08.08.05.13a.6.6,0,0,1-.23.18l-.22.13a1.22,1.22,0,0,1-.31.13.38.38,0,0,1-.22,0l-1.09-.63-1,.6,1,.55c.06,0,.08.08.05.13a.6.6,0,0,1-.23.18l-.22.13a.94.94,0,0,1-.31.13.27.27,0,0,1-.22,0l-1-.55-1.15.66,1.09.64c.06,0,.08.07,0,.12a.69.69,0,0,1-.23.18l-.22.13a1.26,1.26,0,0,1-.32.13.25.25,0,0,1-.21,0l-1.83-1.05C364,255,364,255,364,254.92Z" style="fill:#455a64"></path><path d="M336.87,248.29s.06-.1.16-.16l4.42-2.55a.69.69,0,0,1,.27-.1.53.53,0,0,1,.24.06l1.82,1.06c.07,0,.08.07.05.12a.75.75,0,0,1-.22.19l-.23.12a.71.71,0,0,1-.31.13.32.32,0,0,1-.22,0l-1.09-.63-1,.6,1,.55c.06,0,.08.08.05.13a.6.6,0,0,1-.23.18l-.22.13a1.09,1.09,0,0,1-.31.13.27.27,0,0,1-.22,0l-1-.56-1.16.67,1.09.63c.07,0,.08.08,0,.13a.69.69,0,0,1-.23.18l-.22.12a1,1,0,0,1-.31.14.27.27,0,0,1-.22,0l-1.83-1C336.89,248.38,336.86,248.33,336.87,248.29Z" style="fill:#455a64"></path><path d="M340.06,250l4.56-2.63a.55.55,0,0,1,.58.07l.16.09a.38.38,0,0,1,.16.14s0,.1,0,.16l-1.22,2a4.15,4.15,0,0,1-.34.44h0a4.65,4.65,0,0,1,.51-.36l2.27-1.31a.59.59,0,0,1,.59.07l.15.09c.24.14.28.25.13.34l-4.56,2.63a.59.59,0,0,1-.59-.07l-.12-.07a.46.46,0,0,1-.16-.14s0-.1,0-.17l1.24-2.08a3.63,3.63,0,0,1,.29-.36h-.05a4.51,4.51,0,0,1-.43.3l-2.35,1.36a.58.58,0,0,1-.59-.08l-.14-.08C340,250.16,339.9,250.05,340.06,250Z" style="fill:#455a64"></path><path d="M349.37,252.29c0,.05-.06.1-.16.15l-2.13,1.23a.76.76,0,0,1-.48.06,2.91,2.91,0,0,1-.67-.15,4.31,4.31,0,0,1-.6-.26c-.58-.34-.79-.7-.65-1.1s.65-.85,1.53-1.36a6.22,6.22,0,0,1,2.32-.86,3,3,0,0,1,1.91.38,1.92,1.92,0,0,1,.47.35,1,1,0,0,1,.23.35c0,.11,0,.19-.08.23a1.06,1.06,0,0,1-.32.11,2.26,2.26,0,0,1-.43.07.52.52,0,0,1-.28,0,.21.21,0,0,1-.08-.11,1.82,1.82,0,0,0-.14-.19,1.28,1.28,0,0,0-1.24-.31,4.72,4.72,0,0,0-1.38.59,3,3,0,0,0-1.05.81c-.13.2-.07.37.16.51a2.28,2.28,0,0,0,.28.13l1-.6-.31-.19c-.07,0-.08-.07-.05-.12s.1-.11.22-.19l.23-.13a1.13,1.13,0,0,1,.32-.13.33.33,0,0,1,.22,0l1,.59C349.34,252.19,349.38,252.24,349.37,252.29Z" style="fill:#455a64"></path><path d="M347.66,254.52c0-.05.07-.1.17-.16l4.49-2.59a.58.58,0,0,1,.58.07l.25.15c.24.14.28.25.13.34l-3.84,2.21.92.54c.06,0,.08.08.05.13a.54.54,0,0,1-.22.18l-.22.13a1.26,1.26,0,0,1-.32.13.35.35,0,0,1-.23,0l-1.65-1C347.69,254.61,347.65,254.57,347.66,254.52Z" style="fill:#455a64"></path><path d="M350.55,256l4.56-2.64a.59.59,0,0,1,.6.08l.26.15c.23.13.27.24.11.33l-4.56,2.64a.57.57,0,0,1-.59-.07l-.26-.15C350.43,256.22,350.39,256.11,350.55,256Z" style="fill:#455a64"></path><path d="M352.66,257.43a.47.47,0,0,1-.15-.41.35.35,0,0,1,.17-.19,1.54,1.54,0,0,1,.5-.18.55.55,0,0,1,.41,0s.06.06.09.13,0,.12.05.15a.7.7,0,0,0,.29.32.88.88,0,0,0,.44.13.79.79,0,0,0,.5-.12.61.61,0,0,0,.26-.24.31.31,0,0,0,0-.23,1.51,1.51,0,0,0-.09-.3,1,1,0,0,1,0-.77,1.52,1.52,0,0,1,.71-.65,2.73,2.73,0,0,1,1.36-.38,2.5,2.5,0,0,1,1.3.34,1.35,1.35,0,0,1,.37.3.6.6,0,0,1,.18.31c0,.08,0,.15-.14.21a2.28,2.28,0,0,1-.46.19.54.54,0,0,1-.38,0s-.07-.06-.12-.13a.82.82,0,0,0-.3-.29.77.77,0,0,0-.46-.13.89.89,0,0,0-.37.11c-.17.1-.27.2-.28.3a.79.79,0,0,0,.08.39l.05.14a1,1,0,0,1,0,.71,1.65,1.65,0,0,1-.68.6,3.16,3.16,0,0,1-1.88.4,2.42,2.42,0,0,1-.95-.31A2.07,2.07,0,0,1,352.66,257.43Z" style="fill:#455a64"></path><path d="M355.51,258.88l4.57-2.63a.56.56,0,0,1,.58.08l.26.14c.24.14.28.25.13.34l-1.77,1,1.06.61,1.76-1a.59.59,0,0,1,.59.07l.25.15c.24.14.28.25.13.34l-4.56,2.63a.57.57,0,0,1-.59-.07l-.25-.15c-.24-.14-.28-.25-.13-.34L359.4,259l-1.06-.61-1.86,1.07a.55.55,0,0,1-.58-.07l-.26-.15C355.41,259.08,355.36,259,355.51,258.88Z" style="fill:#455a64"></path></g></g></g><g id="freepik--Shelf--inject-18"><g id="freepik--book-shelf--inject-18"><g id="freepik--shelf--inject-18"><path d="M318.07,100.61V95.07h0a1.91,1.91,0,0,1,1.11-1.48l33.27-19.21a5.7,5.7,0,0,1,5.12,0l95.67,55.23a1.92,1.92,0,0,1,1.1,1.48h0v5.54h0a1.92,1.92,0,0,1-1.1,1.48L420,157.32a5.64,5.64,0,0,1-5.12,0l-95.66-55.23a1.91,1.91,0,0,1-1.11-1.48Z" style="fill:#f0f0f0"></path><path d="M453.24,132.57,420,151.78a5.7,5.7,0,0,1-5.12,0L319.18,96.55c-1.42-.82-1.42-2.14,0-3l33.27-19.21a5.7,5.7,0,0,1,5.12,0l95.67,55.23C454.65,130.43,454.65,131.75,453.24,132.57Z" style="fill:#fafafa"></path><path d="M417.4,152.4v5.54a5.33,5.33,0,0,0,2.56-.62l33.28-19.21a1.9,1.9,0,0,0,1.1-1.48h0v-5.54h0a1.35,1.35,0,0,0-.21-.62c.38.71.09,1.53-.89,2.1L420,151.78A5.19,5.19,0,0,1,417.4,152.4Z" style="fill:#e0e0e0"></path></g><g id="freepik--books--inject-18"><polygon points="364.8 30.62 336.7 46.95 336.7 100.73 364.8 84.4 364.8 30.62" style="fill:#e0e0e0"></polygon><path d="M337.6,47.84l27.2-15.7A11.39,11.39,0,0,0,371,35.56l-27,15.63S342.31,50.79,337.6,47.84Z" style="fill:#fff"></path><path d="M346.67,51.1a5.8,5.8,0,0,1-5.23,0l-4.58-2.64c-1.44-.84-1.44-2.19,0-3L363.66,30l1.14.66L338.44,45.93a1,1,0,0,0,0,1.81l4.26,2.43a3.45,3.45,0,0,0,3.13,0l26.35-15.29,1.29.75Z" style="fill:#fafafa"></path><path d="M373.47,35.62V89.41l-26.8,15.47a5.8,5.8,0,0,1-5.23,0l-4.58-2.64a1.84,1.84,0,0,1-1.08-1.51V47a1.81,1.81,0,0,0,1.08,1.5l4.58,2.65a5.74,5.74,0,0,0,5.23,0Z" style="fill:#e0e0e0"></path><path d="M344.05,51.73a5.31,5.31,0,0,1-2.61-.63l-4.58-2.65a1.81,1.81,0,0,1-1.08-1.5v53.78a1.84,1.84,0,0,0,1.08,1.51l4.58,2.64a5.31,5.31,0,0,0,2.61.63Z" style="fill:#ebebeb"></path><path d="M342.24,89.17l-4.47-2.58a.56.56,0,0,1-.23-.54v-.29c0-.27.07-.36.23-.27l4.47,2.58a.57.57,0,0,1,.23.53v.3C342.47,89.17,342.39,89.26,342.24,89.17Z" style="fill:#fff"></path><path d="M342.24,86.32l-3.77-2.17v.77c0,.07,0,.11-.08.11a.65.65,0,0,1-.27-.11l-.21-.12a1.35,1.35,0,0,1-.27-.2.37.37,0,0,1-.08-.21V81.74c0-.07,0-.11.08-.11a.6.6,0,0,1,.27.1l.21.13a1.35,1.35,0,0,1,.27.2.28.28,0,0,1,.08.21v.78l3.77,2.17a.58.58,0,0,1,.22.54V86C342.46,86.31,342.39,86.41,342.24,86.32Z" style="fill:#fff"></path><path d="M342.31,84l-.13-.09-4.44-3.64a.67.67,0,0,1-.19-.54v-.45c0-.26.06-.37.19-.32l4.44,1.49.13.05q.15.09.15.39v.37c0,.23,0,.32-.15.29l-.85-.31v1.06l.85.68a.48.48,0,0,1,.15.41v.37Q342.46,84.13,342.31,84Zm-1.7-3.14-1.48-.54a4.6,4.6,0,0,1-.53-.22v0l.53.39,1.48,1.16Z" style="fill:#fff"></path><path d="M342.38,79.76s-.12,0-.21-.06l-4.4-2.54c-.15-.08-.22-.26-.22-.53v-.28c0-.27.07-.36.22-.28l3.76,2.18v-1q0-.12.09-.12a.68.68,0,0,1,.26.11l.22.12a1,1,0,0,1,.26.2.32.32,0,0,1,.09.21V79.6C342.45,79.69,342.42,79.75,342.38,79.76Z" style="fill:#fff"></path><path d="M342.24,76.58,337.77,74a.56.56,0,0,1-.23-.54v-.29c0-.27.07-.36.23-.27l4.47,2.58a.57.57,0,0,1,.23.53v.3C342.47,76.58,342.39,76.67,342.24,76.58Z" style="fill:#fff"></path><path d="M342.31,74.79l-.13-.09-4.44-3.64a.67.67,0,0,1-.19-.54v-.46c0-.25.06-.36.19-.32l4.44,1.49.13.06q.15.09.15.39v.37c0,.22,0,.32-.15.29l-.85-.31v1.06l.85.68a.48.48,0,0,1,.15.41v.36C342.46,74.77,342.41,74.85,342.31,74.79Zm-1.7-3.14-1.48-.54c-.17-.06-.35-.14-.53-.22v0l.53.39,1.48,1.17Z" style="fill:#fff"></path><path d="M342.24,70.52l-4.47-2.58c-.15-.08-.22-.26-.22-.53v-.18a.49.49,0,0,1,0-.2.16.16,0,0,1,.16,0L340,67a4,4,0,0,1,.54.07v0a4.23,4.23,0,0,1-.55-.26l-2.23-1.29a.56.56,0,0,1-.22-.53v-.17c0-.27.07-.36.22-.28l4.47,2.58a.58.58,0,0,1,.22.54v.13a.41.41,0,0,1,0,.21s-.08.06-.16,0l-2.37,0a4.29,4.29,0,0,1-.45-.07l0,0a4,4,0,0,1,.48.22l2.3,1.33c.15.08.22.26.22.53v.17C342.46,70.52,342.39,70.61,342.24,70.52Z" style="fill:#fff"></path><polygon points="376.29 37.25 348.19 53.59 348.19 107.37 376.29 91.04 376.29 37.25" style="fill:#ebebeb"></polygon><path d="M349.1,54.48l27.19-15.7a11.45,11.45,0,0,0,6.22,3.42l-27,15.63S353.8,57.42,349.1,54.48Z" style="fill:#fff"></path><path d="M358.16,57.74a5.8,5.8,0,0,1-5.23,0l-4.58-2.65c-1.44-.83-1.44-2.18,0-3L375.16,36.6l1.13.65L349.93,52.57a1,1,0,0,0,0,1.81l4.26,2.43a3.45,3.45,0,0,0,3.13,0l26.36-15.29,1.28.74Z" style="fill:#fafafa"></path><path d="M385,42.26V96.05l-26.8,15.47a5.8,5.8,0,0,1-5.23,0l-4.58-2.64a1.84,1.84,0,0,1-1.08-1.51V53.58a1.82,1.82,0,0,0,1.08,1.51l4.58,2.65a5.8,5.8,0,0,0,5.23,0Z" style="fill:#ebebeb"></path><path d="M355.55,58.37a5.32,5.32,0,0,1-2.62-.63l-4.58-2.65a1.82,1.82,0,0,1-1.08-1.51v53.79a1.84,1.84,0,0,0,1.08,1.51l4.58,2.64a5.31,5.31,0,0,0,2.62.62Z" style="fill:#f0f0f0"></path><path d="M363.83,66.65l-1,.57V66.4l.29-.18-.16-2-.91.53L361.89,67l.3-.18v.83l-.95.55v-.83l.29-.17.6-7.1c0-.37.05-.71.06-.76v0l-.17.09-.13.08v-.82l.94-.55.72,7.93.29-.17Zm-1.08-5c-.18-2-.21-2.58-.22-2.61h0s0,.66-.22,2.88l-.17,2,.78-.44Z" style="fill:#fff"></path><path d="M365.23,56.68c.66-.38,1,.35,1,2.21s-.38,3-1.05,3.34l-.25.14v2.8l.3-.17v.83l-1,.55v-.82l.28-.17V57.88l-.28.16v-.82Zm0,4.75c.45-.27.67-1,.67-2.32s-.24-1.83-.67-1.59l-.24.14v3.9Z" style="fill:#fff"></path><path d="M368.39,64l-.6-3.61-.15.09-.21.12v3.13l.29-.17v.83l-.94.54v-.82l.28-.17V56.45l-.28.16v-.82l1-.57c.67-.38,1,.53,1,2a4.55,4.55,0,0,1-.61,2.76l.55,3,.29-.17v.83Zm-.6-4.37c.32-.18.58-.77.58-2.15,0-1.15-.25-1.66-.67-1.42l-.27.15v3.63Z" style="fill:#fff"></path><path d="M369.46,63.4v-.82l.29-.17V54.9l-.29.16v-.82l1.91-1.1v2.24l-.36.21V54.17l-.88.51v3.15l.85-.49v.82l-.85.5v3.53l.9-.52V60.06l.36-.21v2.44Z" style="fill:#fff"></path><path d="M374.2,60.67l-.47.27-1.1-7h0s0,1.15,0,2.39v4.42l.28-.16v.82l-.87.51v-.83l.28-.16V53.42l-.28.16v-.82l.74-.43,1.11,7h0s0-1.23,0-2.43V52.5l-.28.17v-.82l.87-.51v.82l-.28.17Z" style="fill:#fff"></path><path d="M376.06,50.43c.91-.53,1.16,1,1.16,4s-.24,4.64-1.11,5.14l-1.07.62v-.83l.29-.16V51.67l-.29.17V51Zm0,8.33c.64-.36.76-1.65.76-4,0-2.84-.17-3.83-.79-3.47l-.32.18V59Z" style="fill:#fff"></path><path d="M377.79,58.59v-.82l.29-.17V50.09l-.29.16v-.82l1.9-1.1v2.24l-.35.21V49.36l-.88.51V53l.85-.49v.82l-.85.5v3.53l.9-.52V55.25l.36-.21v2.44Z" style="fill:#fff"></path><path d="M361.76,81.45v-.83l.29-.16V72.94l-.29.17v-.83l1.91-1.1v2.24l-.36.21V72.22l-.88.5v3.16l.85-.5v.83l-.85.49v3.54l.9-.53V78.1l.36-.2v2.43Z" style="fill:#fff"></path><path d="M364.68,77.69c0,.75.19,1.24.55,1s.52-.75.52-1.71a2.47,2.47,0,0,0-.62-1.87,3,3,0,0,1-.77-2.45c0-1.34.29-2.19.75-2.45s.55,0,.63.43h0V70l.32-.18v2.58l-.35.2V72.1c0-.92-.2-1.3-.52-1.11s-.46.6-.46,1.5a2.09,2.09,0,0,0,.56,1.66,3.29,3.29,0,0,1,.83,2.65c0,1.5-.31,2.42-.81,2.7s-.57,0-.65-.43h0v.7l-.32.18V77.28l.35-.2Z" style="fill:#fff"></path><path d="M367.63,68.9c.66-.39,1,.35,1,2.2s-.38,3-1.05,3.34l-.25.15v2.8l.3-.17V78l-1,.56v-.83l.28-.16V70.09l-.28.17v-.83Zm0,4.74c.45-.26.67-1,.67-2.31s-.24-1.84-.67-1.59l-.24.13v3.9Z" style="fill:#fff"></path><path d="M371.44,75.86l-1,.56V75.6l.3-.17-.17-2-.91.53-.17,2.17.3-.18v.83l-.95.55v-.82l.29-.17.6-7.1c0-.37.05-.71.06-.77v0l-.17.1-.13.07v-.82l.94-.55.71,7.93.29-.17Zm-1.08-5c-.17-2-.21-2.57-.21-2.61h0s-.05.66-.22,2.89l-.17,2,.77-.44Z" style="fill:#fff"></path><path d="M374.08,74.33l-.47.27-1.1-7h0v6.82l.29-.17v.83l-.88.51v-.83l.29-.17V67.08l-.29.17v-.83l.75-.43,1.11,7h0s0-1.22,0-2.43V66.17l-.29.17v-.83l.88-.51v.83l-.29.16ZM373.76,64a.74.74,0,0,1-.31.52c-.24.14-.32-.17-.53,0a.67.67,0,0,0-.26.36l-.1-.63a.8.8,0,0,1,.31-.47c.25-.15.34.15.53,0a.72.72,0,0,0,.28-.39Z" style="fill:#fff"></path><path d="M375.89,64c.73-.42,1,.62,1,4.11s-.3,4.89-1,5.31-1-.61-1-4.11S375.16,64.42,375.89,64Zm0,8.56c.48-.28.63-1.31.63-4.21s-.15-3.77-.63-3.49-.64,1.33-.64,4.21S375.4,72.84,375.89,72.56Z" style="fill:#fff"></path><path d="M377.48,72.37v-.83l.29-.16V63.87l-.29.16v-.82l.95-.55v.82l-.28.17v7.51l.86-.5V69.31l.37-.21v2.18Z" style="fill:#fff"></path><path d="M352.74,92.23c.74.43,1.12.26,1.12-.2a1.84,1.84,0,0,0-1.07-1.38c-.91-.52-1-.06-1.18.26s-.44.75-1.61.07c-1-.58-1.58-1.34-1.58-1.94s.38-.55.73-.46h0l-.62-.36v-.34l1.86,1.07v.35l-.27-.16c-.65-.37-1.14-.31-1.14.18a1.62,1.62,0,0,0,1,1.25c.78.45.94.12,1.08-.14.2-.42.42-.93,1.71-.19,1.08.63,1.68,1.42,1.68,2.06a.5.5,0,0,1-.64.54h0l.53.31v.34l-1.82-1v-.35Z" style="fill:#fff"></path><path d="M348.53,85.83c0-.75.61-.85,1.75-.19S352,87.09,352,87.85v.6l1.69,1v-.34l.6.35V90.5l-.6-.34v-.35l-4.58-2.64v.35l-.6-.35Zm2.91,1.67c0-.54-.4-1-1.16-1.48s-1.15-.37-1.15.14v.63l2.31,1.33Z" style="fill:#fff"></path><path d="M354.31,84.42v1l-.6-.35V84.8l-1.26-.44v1.48l1.26,1v-.31l.6.35v1l-.6-.34v-.32l-4.06-3.29-.51-.4h0v.34l-.6-.34v-1l5.18,1.81v-.32Zm-3.51-.63c-1.24-.43-1.7-.63-1.71-.63h0s.47.34,1.73,1.35l1.08.87V84.17Z" style="fill:#fff"></path><path d="M354.31,81v.33l-4.68-.75h0l1.37.78,2.71,1.56v-.34l.6.35v1l-.6-.35v-.34l-4.58-2.64V81l-.6-.35V80l4.65.74h0l-1.35-.77-2.7-1.56v.34l-.6-.35v-1l.6.34V78Z" style="fill:#fff"></path><path d="M353.71,78.7l.6.34v1.07l-.6-.34v-.35l-4.58-2.64v.34l-.6-.34V75.71l.6.35v.34L353.71,79Z" style="fill:#fff"></path><path d="M352.74,77.15c.74.43,1.12.27,1.12-.2a1.81,1.81,0,0,0-1.07-1.37c-.91-.53-1-.07-1.18.25s-.44.75-1.61.08c-1-.59-1.58-1.35-1.58-2s.38-.55.73-.46h0l-.62-.36v-.34l1.86,1.07v.35l-.27-.16c-.65-.37-1.14-.31-1.14.18a1.6,1.6,0,0,0,1,1.25c.78.45.94.12,1.08-.14.2-.42.42-.93,1.71-.19,1.08.63,1.68,1.42,1.68,2.06a.49.49,0,0,1-.64.54h0l.53.31v.34l-1.82-1V77Z" style="fill:#fff"></path><path d="M353.71,71.87l.6.35v1.06l-.6-.34v-.35l-2.11-1.22v1.76l2.11,1.22V74l.6.35v1.07l-.6-.35v-.35l-4.58-2.64v.35l-.6-.35V71l.6.35v.34L351,72.79V71L349.13,70v.35l-.6-.35V68.88l.6.35v.34l4.58,2.64Z" style="fill:#fff"></path><polygon points="385.63 71.99 385.63 74.72 381.48 76.84 381.48 73.91 385.63 71.99" style="fill:#e0e0e0"></polygon><polygon points="382.06 74.88 387.51 72.17 393.6 75.68 386.55 79.6 382.06 74.88" style="fill:#fff"></polygon><path d="M390.36,80.52v22.8a2.87,2.87,0,0,1-1.29,2.25l-21.78,12.57a2.52,2.52,0,0,1-1.05.3l20.31-37.52a2.52,2.52,0,0,0,1.05-.3l1.47-.85C389.78,79.36,390.36,79.7,390.36,80.52Z" style="fill:#e0e0e0"></path><path d="M385,80.62,381.67,77l-2.95-1.71c-.27-.43-.59-.76-.42-1.11l-20.14,37.15,0,0c-.17.36-.22,1.16.27,1.44l6.28,5.38a2.68,2.68,0,0,0,1.55.3l20.31-37.52A2.84,2.84,0,0,1,385,80.62Z" style="fill:#f0f0f0"></path><path d="M378.72,73.74c-.72.41-.54.88,0,1.5L385,80.62a2.84,2.84,0,0,0,2.6,0l5.53-3.19c.71-.41.84-1,.28-1.33a2.58,2.58,0,0,0-2.31.16l-4.36,2.52a1,1,0,0,1-.87,0l-4-4a.26.26,0,0,1,0-.5L386.33,72c.72-.41.84-1,.28-1.33a2.58,2.58,0,0,0-2.31.16Z" style="fill:#fafafa"></path><path d="M364.3,111.94l1,1.66.26-.27.07.11-1,1.74-.06-.1.14-.47-2.66-4.42-.27.26-.06-.1.94-1.71c.78-1.41,1.38-1.35,1.95-.42a3.13,3.13,0,0,1-.15,3.38Zm.08-.51a2.24,2.24,0,0,0-.32-2.17c-.54-.89-1-.94-1.26-.45l-.19.34,1.58,2.62Z" style="fill:#fff"></path><path d="M364.25,106.25l-.23.2-.06-.1.44-.8a.52.52,0,0,1,.81-.24l1.79,1-.9-3.19-.37.25-.07-.1.63-1.14.06.11-.14.69,1.38,4.94c.3,1,.33,1.65.14,2s-.5.34-.71,0a1,1,0,0,1,.07-1.28l.58,1a2.73,2.73,0,0,0-.18-1.47Z" style="fill:#fff"></path><path d="M368.22,99.35a2.65,2.65,0,0,1-.05-.71l.09-.16.79,1.31-.14.25s-.88-.93-1.33-.11c-.27.49-.21,1.53.87,3.33s1.69,1.86,2,1.21a2.89,2.89,0,0,0-.16-2.44l.08-.15a3.2,3.2,0,0,1,.12,2.89c-.71,1.28-1.69,1.18-2.67-.44a4.54,4.54,0,0,1-.45-4.45A.89.89,0,0,1,368.22,99.35Z" style="fill:#fff"></path><path d="M370.51,95.19a2.43,2.43,0,0,1,0-.71l.08-.15.79,1.31-.13.24s-.88-.93-1.34-.1c-.27.49-.2,1.53.88,3.32s1.68,1.86,2,1.22a2.88,2.88,0,0,0-.17-2.45l.09-.15a3.27,3.27,0,0,1,.12,2.89c-.71,1.29-1.69,1.18-2.67-.44a4.57,4.57,0,0,1-.46-4.45A.91.91,0,0,1,370.51,95.19Z" style="fill:#fff"></path><path d="M373.64,93.42c.32-.58.63-.55.86-.33l1.41,1.28.23-.2.06.1-.4.73c-.25.46-.51.42-.78.18l-1.46-1.31-.31.55,1.38,2.27.26-.26.07.1-1,1.75-.06-.11.14-.47-2.66-4.41-.27.26-.06-.1,1-1.75.06.11-.14.47,1.19,2,.17-.3a1.54,1.54,0,0,0-.06-1.27l-.42-1.11a1.68,1.68,0,0,1-.06-1.33c.2-.37.5-.34.71,0a1.15,1.15,0,0,1,.08,1.07,1,1,0,0,1-.15.21l-.59-1a1.47,1.47,0,0,0,.11.82l.42,1.11a2.4,2.4,0,0,1,.2,1.09Z" style="fill:#fff"></path><path d="M373.71,88.9l-.07-.1,1-1.74.07.1-.14.47,2.1,3.49-1-4.41-.31-.52-.26.27-.07-.11,1-1.74.06.1-.14.47,2.66,4.42.27-.26.06.1-1,1.74-.06-.1.14-.47-2.11-3.48,1,4.4.31.52.27-.26.06.1-1,1.74-.06-.1.13-.47L374,88.64Z" style="fill:#fff"></path><path d="M377.38,80.59l-.46-.76a1.71,1.71,0,0,1,.1-.25c.11-.21.3-.19.45,0a1.5,1.5,0,0,1-.15,1.5c-.37.68-.68.64-.86.33a.81.81,0,0,1,0-.78,1,1,0,0,1,.14-.18l.46.76a.65.65,0,0,0,.22-.27A1.93,1.93,0,0,0,377.38,80.59Zm-.86,3.21-.06-.1,1-1.75.06.11-.14.47L379.45,86l-1-4.4-.31-.52-.27.26-.06-.1,1-1.75.07.11-.14.47,2.66,4.42.27-.27.06.11-1,1.74-.07-.1.14-.47L378.7,82l1,4.41.31.51.27-.26.06.1-1,1.75-.07-.11.14-.47-2.66-4.41Z" style="fill:#fff"></path><polygon points="418.05 50.4 386.49 68.75 386.49 129.16 418.05 110.82 418.05 50.4" style="fill:#e0e0e0"></polygon><path d="M387.5,69.75l30.55-17.64A12.9,12.9,0,0,0,425,56L394.75,73.52S392.79,73.06,387.5,69.75Z" style="fill:#fff"></path><path d="M397.68,73.41a6.46,6.46,0,0,1-5.87,0l-5.14-3c-1.62-.93-1.62-2.45,0-3.38l30.11-17.39,1.27.73L388.44,67.61a1.07,1.07,0,0,0,0,2l4.78,2.73a3.9,3.9,0,0,0,3.52,0L426.35,55.2l1.44.83Z" style="fill:#fafafa"></path><path d="M427.79,56v60.42l-30.11,17.38a6.52,6.52,0,0,1-5.87,0l-5.14-3a2.07,2.07,0,0,1-1.22-1.7V68.75a2.07,2.07,0,0,0,1.22,1.69l5.14,3a6.52,6.52,0,0,0,5.87,0Z" style="fill:#e0e0e0"></path><path d="M394.75,74.12a6,6,0,0,1-2.94-.7l-5.14-3a2.07,2.07,0,0,1-1.22-1.69v60.41a2.07,2.07,0,0,0,1.22,1.7l5.14,3a6,6,0,0,0,2.94.7Z" style="fill:#f0f0f0"></path><path d="M393.3,124.68a.55.55,0,0,1-.27-.1l-5.54-3.2a.83.83,0,0,1-.28-.22.4.4,0,0,1-.08-.23v-1.28c0-.58.26-.86.78-.83a6,6,0,0,1,2.35.94,10,10,0,0,1,2.35,1.77,2.61,2.61,0,0,1,.78,1.74v1.27C393.39,124.62,393.36,124.67,393.3,124.68Zm-1.08-2.06a1.11,1.11,0,0,0-.45-.76,8.38,8.38,0,0,0-1.51-1,7,7,0,0,0-1.52-.72c-.29-.07-.44,0-.44.25v.43l3.92,2.26Z" style="fill:#fff"></path><path d="M393.12,120.46l-5.72-3.3a.6.6,0,0,1-.3-.56v-.28c0-.26.1-.33.3-.22l5.72,3.31a.58.58,0,0,1,.3.55v.28C393.42,120.5,393.32,120.58,393.12,120.46Z" style="fill:#fff"></path><path d="M392.69,117.79a6.16,6.16,0,0,1-2.45-1,9.43,9.43,0,0,1-2.39-1.83,2.76,2.76,0,0,1-.79-1.83,1.19,1.19,0,0,1,.1-.53c0-.11.18-.1.38,0a3.53,3.53,0,0,1,.61.44c.18.17.25.28.2.35a.89.89,0,0,0-.09.38,1.34,1.34,0,0,0,.5.88,7.53,7.53,0,0,0,1.49,1.06,5.34,5.34,0,0,0,1.5.67c.33.06.49-.06.49-.35a.86.86,0,0,0,0-.23c0-.06,0-.15-.07-.27a.15.15,0,0,1,0-.07c0-.08.07-.11.22-.07a2.7,2.7,0,0,1,.59.28.81.81,0,0,1,.23.17.7.7,0,0,1,.15.24,3.46,3.46,0,0,1,.09.35,2,2,0,0,1,0,.42C393.46,117.5,393.2,117.81,392.69,117.79Z" style="fill:#fff"></path><path d="M393.12,114.31l-4.82-2.78v.74c0,.07,0,.1-.11.09a1.19,1.19,0,0,1-.34-.15l-.27-.16a1.59,1.59,0,0,1-.34-.24.33.33,0,0,1-.11-.21v-2.55c0-.07,0-.1.11-.09a1.19,1.19,0,0,1,.34.15l.27.16a1.59,1.59,0,0,1,.34.24.31.31,0,0,1,.11.22v.75l4.82,2.78a.58.58,0,0,1,.29.55v.28C393.41,114.35,393.31,114.42,393.12,114.31Z" style="fill:#fff"></path><path d="M393.12,111.58l-5.72-3.31a.59.59,0,0,1-.3-.56v-.28q0-.37.3-.21l5.72,3.3a.6.6,0,0,1,.3.56v.28C393.42,111.62,393.32,111.69,393.12,111.58Z" style="fill:#fff"></path><path d="M390.26,107.93c-2.14-1.24-3.2-2.44-3.2-3.61,0-.57.26-.86.78-.86a5.9,5.9,0,0,1,2.42,1,9.57,9.57,0,0,1,2.42,1.84,2.71,2.71,0,0,1,.78,1.76Q393.46,109.78,390.26,107.93Zm1.85-1.09a3,3,0,0,0-.62-.58,13.88,13.88,0,0,0-1.23-.78,11.28,11.28,0,0,0-1.22-.63,1.21,1.21,0,0,0-.62-.14c-.12,0-.18.12-.18.29a.85.85,0,0,0,.18.49,2.74,2.74,0,0,0,.62.59,12.2,12.2,0,0,0,1.22.78,11.28,11.28,0,0,0,1.22.63,1.2,1.2,0,0,0,.63.13c.12,0,.18-.13.18-.29A.85.85,0,0,0,392.11,106.84Z" style="fill:#fff"></path><path d="M393.12,105.13l-5.72-3.3a.6.6,0,0,1-.29-.56v-.17a.31.31,0,0,1,.05-.19s.1,0,.2,0l2.92.47.69.18v0c-.31-.15-.55-.26-.71-.36l-2.85-1.64a.6.6,0,0,1-.29-.56v-.16c0-.26.1-.33.29-.22l5.72,3.3a.6.6,0,0,1,.29.56v.12a.34.34,0,0,1-.05.2s-.1,0-.2,0l-3-.47a4.44,4.44,0,0,1-.58-.15l0,0,.61.29,2.94,1.7a.6.6,0,0,1,.29.56v.16C393.41,105.17,393.31,105.24,393.12,105.13Z" style="fill:#fff"></path><path d="M393.12,100.84l-5.72-3.3a.6.6,0,0,1-.29-.56v-.17a.31.31,0,0,1,.05-.19s.1,0,.2,0l2.92.48a5.49,5.49,0,0,1,.69.17v0l-.71-.36-2.85-1.65a.58.58,0,0,1-.29-.55V94.5c0-.26.1-.33.29-.22l5.72,3.3a.58.58,0,0,1,.29.55v.13a.29.29,0,0,1-.05.19s-.1,0-.2,0l-3-.47-.58-.15,0,0,.61.3,2.94,1.7a.6.6,0,0,1,.29.55v.17C393.41,100.88,393.31,101,393.12,100.84Z" style="fill:#fff"></path><path d="M393.21,96.93a.66.66,0,0,1-.16-.11l-5.69-4.32a.63.63,0,0,1-.25-.55v-.43c0-.25.08-.34.25-.28l5.69,2.26.16.07a.44.44,0,0,1,.2.41v.35c0,.22-.07.3-.19.25l-1.09-.46v1l1.09.81a.5.5,0,0,1,.19.43v.35C393.41,96.94,393.34,97,393.21,96.93ZM391,93.61l-1.9-.8c-.21-.09-.44-.19-.68-.31v0c.24.16.47.31.68.47L391,94.4Z" style="fill:#fff"></path><path d="M393.12,92.83l-5.72-3.31a.59.59,0,0,1-.3-.56v-.28q0-.37.3-.21l5.72,3.3a.6.6,0,0,1,.3.56v.28C393.42,92.87,393.32,92.94,393.12,92.83Z" style="fill:#fff"></path><path d="M393.12,90.72l-5.63-3.25a1,1,0,0,1-.28-.22.47.47,0,0,1-.08-.26V85.87c0-.41.13-.66.41-.75s.72,0,1.35.4A3.71,3.71,0,0,1,390.4,87l0,0a.45.45,0,0,1,.35-.06,2.34,2.34,0,0,1,.54.13l1.72.59.11.05a.57.57,0,0,1,.24.55v.24c0,.23-.08.32-.24.26l-1.7-.63a.57.57,0,0,0-.28,0c-.05,0-.08.09-.08.2v.16l2,1.17a.6.6,0,0,1,.29.56v.23C393.41,90.75,393.31,90.83,393.12,90.72Zm-3.33-3.33a.57.57,0,0,0-.19-.36,2.35,2.35,0,0,0-.57-.44,1.4,1.4,0,0,0-.56-.21.15.15,0,0,0-.17.17v.35l1.49.87Z" style="fill:#fff"></path><path d="M393.3,87a.55.55,0,0,1-.27-.1l-5.54-3.2a.83.83,0,0,1-.28-.22.4.4,0,0,1-.08-.23v-2c0-.07,0-.1.11-.09a1.19,1.19,0,0,1,.34.15l.27.16a1.59,1.59,0,0,1,.34.24.36.36,0,0,1,.11.21V83.1l1.3.74v-1c0-.07,0-.1.1-.09a1,1,0,0,1,.34.15l.28.16a1.59,1.59,0,0,1,.34.24.36.36,0,0,1,.11.21v1l1.45.84V84.17c0-.07,0-.1.1-.08a1,1,0,0,1,.34.15l.28.16a1.59,1.59,0,0,1,.34.24.31.31,0,0,1,.11.21v2C393.39,86.92,393.36,87,393.3,87Z" style="fill:#fff"></path><polygon points="430.96 57.86 399.39 76.21 399.39 136.62 430.96 118.28 430.96 57.86" style="fill:#ebebeb"></polygon><path d="M400.41,77.21,431,59.57a12.82,12.82,0,0,0,7,3.84L407.66,81S405.7,80.52,400.41,77.21Z" style="fill:#fff"></path><path d="M410.59,80.87a6.46,6.46,0,0,1-5.87,0l-5.14-3c-1.63-.94-1.63-2.45,0-3.39l30.1-17.38,1.28.73L401.35,75.07a1.07,1.07,0,0,0,0,2l4.78,2.73a3.87,3.87,0,0,0,3.52,0l29.61-17.17,1.44.84Z" style="fill:#fafafa"></path><path d="M440.7,63.48V123.9l-30.11,17.38a6.46,6.46,0,0,1-5.87,0l-5.15-3a2.05,2.05,0,0,1-1.21-1.69V76.2a2.08,2.08,0,0,0,1.21,1.7l5.15,3a6.46,6.46,0,0,0,5.87,0Z" style="fill:#ebebeb"></path><path d="M407.66,81.58a6,6,0,0,1-2.94-.71l-5.15-3a2.08,2.08,0,0,1-1.21-1.7v60.42a2.05,2.05,0,0,0,1.21,1.69l5.15,3a6,6,0,0,0,2.94.7Z" style="fill:#f5f5f5"></path><path d="M414.76,97v2l-.1.06c-.21-1.8-1.82-.78-1.82-.78l-.21.12v3.41l.21-.12a2.15,2.15,0,0,0,1-1.68l.1-.06v2.38l-.1.06c-.1-1.07-1-.5-1-.5l-.21.12v2.21c0,1.19.26,1.12.51,1v.18l-1.71,1v-.18c.25-.14.34-.75.34-1.46v-4.54c0-.66-.08-1.23-.34-1.08V99Z" style="fill:#fff"></path><path d="M419.44,101.59v.18l-.54.32c-1.06.6-.91.51-1.32-1.54-.2-1-.75-.66-.75-.66l-.28.16v2.11c0,.72.2,1,.44.85v.18l-1.73,1V104c.26-.15.43-.63.43-1.35v-5c0-.66-.16-.85-.43-.7v-.18l1.48-.85c1.18-.68,2-.91,2,.86a3,3,0,0,1-1.15,2.58c.38-.3.86-.11,1.15,1.63C418.87,101.69,419.29,101.66,419.44,101.59Zm-1.65-4.28c0-1.84-.47-1.57-1.05-1.24l-.19.11v3.69l.19-.11C417.32,99.43,417.79,99.15,417.79,97.31Z" style="fill:#fff"></path><path d="M423.3,97.24v2.31L420,101.48v-.18c.25-.14.34-.75.34-1.47V95.3c0-.66-.08-1.23-.34-1.08V94l3.27-1.89v2l-.1.06c-.14-1.75-1.75-.82-1.75-.82l-.21.12v3.42l.21-.13a2.11,2.11,0,0,0,1-1.65l.1-.06v2.38l-.1.06c-.06-1.07-1-.55-1-.55l-.21.13v3.49l.21-.13a4.22,4.22,0,0,0,1.82-3.18Z" style="fill:#fff"></path><path d="M428.86,88.89v.18c-.89.51-.88,3-.88,3v4.76l-.32.18-2.6-4.31v3.11s0,2.52.82,2v.18l-1.81,1v-.18c.9-.52.89-3,.89-3v-3.3l-.23-.38c-.38-.63-.55-.41-.7-.35v-.18l1.45-.84,2.4,3.88V92.15s0-2.53-.82-2v-.18Z" style="fill:#fff"></path><path d="M433,91.71l.08,1.61a3.82,3.82,0,0,1-1.54,1.55c-1.27.73-2.06-.52-2.06-2.63s.79-4.27,2.06-5c.61-.35,1.16-.56,1.54-.24L433,88.7l-.11.06c-.33-1.24-.67-1.74-1.35-1.35s-1,1.32-1,4.21.35,3.44,1,3.07a4.13,4.13,0,0,0,1.35-2.92Z" style="fill:#fff"></path><path d="M437.18,85.6v4.5c0,.86-.05,1.13.26,1.1v.18l-1.24.72v-.18c.17-.2.15-.48.15-1.34v-2l-1.44.83v2c0,.86,0,1.16.14,1.17v.18l-1.24.72V93.3c.31-.33.27-.55.27-1.41v-4.5c0-.81,0-1.25-.27-1.17V86l1.24-.71v.18c-.16.19-.14.6-.14,1.41v2.27l1.44-.84V86.08c0-.81,0-1.25-.15-1.25v-.18l1.24-.71v.18C437.16,84.37,437.18,84.79,437.18,85.6Z" style="fill:#fff"></path><path d="M414.52,110.38v2l-.07,0c-.16-1.84-1.37-1-1.37-1l-.15.09v3.41l.15-.09a1.8,1.8,0,0,0,.77-1.53l.07,0v2.38l-.07.05c-.08-1.09-.77-.65-.77-.65l-.15.09v2.21c0,1.19.19,1.16.38,1v.18l-1.29.74v-.18c.19-.11.26-.7.26-1.42v-4.53c0-.66-.06-1.25-.26-1.13v-.18Z" style="fill:#fff"></path><path d="M418,115.62v.18l-.41.24c-.79.44-.67.38-1-1.74-.15-1-.56-.77-.56-.77l-.21.13v2.11c0,.72.14,1,.33.91v.18l-1.3.75v-.18c.19-.11.32-.57.32-1.29v-5c0-.66-.12-.87-.32-.76v-.18l1.11-.63c.88-.52,1.51-.62,1.51,1.14a2.88,2.88,0,0,1-.87,2.42c.29-.24.65,0,.86,1.79C417.6,115.64,417.92,115.67,418,115.62Zm-1.24-4.53c0-1.84-.35-1.63-.78-1.38l-.14.08v3.69l.14-.08C416.44,113.15,416.79,112.93,416.79,111.09Z" style="fill:#fff"></path><path d="M421.39,113.68v.18l-1.28.74v-.18c.35-.2.12-1.2.12-1.2l-.14-.69-1,.61s-.28,2.15.43,1.65V115l-1.1.64v-.18c.11-.09.23-.07.66-2.83l.77-5.27.08,0c1.09,5.59,1.13,5.84,1.13,5.84C421.16,113.89,421.27,113.73,421.39,113.68Zm-1.32-1.32-.53-2.78-.49,3.37Z" style="fill:#fff"></path><path d="M425.35,104.13v.18c-.68.38-.67,2.89-.67,2.89V112l-.24.14-1.94-4.68v3.11s0,2.52.61,2.16v.18l-1.36.78v-.18c.68-.38.67-2.9.67-2.9v-3.3l-.17-.42c-.29-.68-.42-.49-.53-.44v-.18l1.09-.63,1.8,4.22v-2.57s0-2.52-.62-2.16v-.18Z" style="fill:#fff"></path><path d="M427.37,110.5l-.08.64c.41-.45.58,0,.56.59a1.42,1.42,0,0,1-.47,1.15.23.23,0,0,1-.32,0,.56.56,0,0,1-.05-.3c0-.19.1-.34.17-.34s.12.13.11.33a.53.53,0,0,1,0,.17s0,.08.13,0a.83.83,0,0,0,.22-.7c0-.19-.1-.8-.44-.48l.14-1c-.91.44-1.47-.92-1.47-3s.59-4.16,1.54-4.71c.46-.27.88-.4,1.16,0l-.06,1.69-.08,0c-.25-1.29-.51-1.84-1-1.54s-.74,1.17-.74,4.07.26,3.48.74,3.2.9-1.5,1-2.72l.08,0,.06,1.62A2.61,2.61,0,0,1,427.37,110.5Z" style="fill:#fff"></path><path d="M431.93,107.6v.17l-1.27.74v-.18c.35-.2.12-1.2.12-1.2l-.14-.69-1.06.61s-.27,2.15.43,1.65v.18l-1.1.64v-.18c.12-.09.23-.07.67-2.83l.77-5.27.08,0c1.09,5.59,1.13,5.84,1.13,5.84C431.71,107.8,431.82,107.64,431.93,107.6Zm-1.32-1.33-.53-2.78-.48,3.37Z" style="fill:#fff"></path><path d="M433.8,99.25v.18c-.19.11-.38.51-.38,1.16v5c0,.72.19,1,.38.88v.18l-1.4.81v-.18c.19-.11.38-.6.38-1.32v-5c0-.66-.19-.84-.38-.73v-.18Z" style="fill:#fff"></path><path d="M436.54,104.34a2.37,2.37,0,0,1-.93,1.41c-.86.49-1.22,0-1.22,0v-2l.08,0c.1.59.35,2.3,1.14,1.85a2.22,2.22,0,0,0,.08-2.52l-.68-.63a2.66,2.66,0,0,1-.5-2.87,2.3,2.3,0,0,1,.92-1.33c.76-.44,1.15-.16,1.15-.16v1.78l-.08,0c-.08-.51-.35-1.9-1.07-1.48a1.89,1.89,0,0,0-.07,2.33l.68.69A2.94,2.94,0,0,1,436.54,104.34Z" style="fill:#fff"></path></g></g></g></svg>